<svg xmlns="http://www.w3.org/2000/svg" viewBox="0 0 2006.07 431.3"><defs><style>.cls-1{fill:#fff;}.cls-2,.cls-3,.cls-4,.cls-5,.cls-6{fill:#ec3641;}.cls-2{opacity:0.4;}.cls-3{opacity:0.8;}.cls-4{opacity:0.2;}.cls-5{opacity:0.6;}</style></defs><g id="Layer_2" data-name="Layer 2"><g id="Layer_1-2" data-name="Layer 1"><polygon class="cls-1" points="321.63 411.99 231.27 231.27 411.99 231.27 321.63 411.99"/><polygon class="cls-1" points="205.97 180.72 115.61 0 296.33 0 205.97 180.72"/><polygon class="cls-1" points="115.61 431.3 205.97 250.58 296.32 431.3 115.61 431.3"/><polygon class="cls-1" points="411.99 200.03 231.27 200.03 321.63 19.31 411.99 200.03"/><polygon class="cls-1" points="0 200.03 90.36 19.31 180.72 200.03 0 200.03"/><polygon class="cls-1" points="0 200.03 90.36 19.31 180.72 200.03 0 200.03"/><polygon class="cls-1" points="180.72 200.03 0 200.03 90.36 19.31 180.72 200.03"/><path class="cls-1" d="M986.1,213.65v-.59c0-58.78,43.94-107.47,103.91-107.47,37.1,0,59.37,13.66,80.74,33.25l-11,11.28c-18.11-17.51-38.89-30.58-70.06-30.58-49.87,0-87.57,40.68-87.57,92.92v.6c0,52.54,38.29,93.51,87.87,93.51,30,0,50.46-11.58,71.53-32.36l10.4,10.1c-22,21.67-45.71,36.21-82.53,36.21-59.37,0-103.31-47.2-103.31-106.87"/><path class="cls-1" d="M1214.38,109.15h87.27c25.53,0,46,8,58.48,20.49a54.77,54.77,0,0,1,15.74,38.59v.59c0,34.74-25.83,54.63-60.86,59.38L1383.59,317H1364l-66.21-86.09h-68V317h-15.43Zm85.48,107.76c34.74,0,60.56-17.51,60.56-47.49v-.6c0-27.9-22-45.42-59.66-45.42h-71v93.51Z"/><path class="cls-1" d="M1419.79,213.65v-.59c0-56.7,41.85-107.47,104.8-107.47s104.19,50.17,104.19,106.87v.6c0,56.7-41.86,107.46-104.79,107.46s-104.2-50.17-104.2-106.87m193,0v-.59c0-51.36-37.41-93.52-88.76-93.52s-88.17,41.57-88.17,92.92v.6c0,51.35,37.4,93.51,88.77,93.51s88.16-41.56,88.16-92.92"/><path class="cls-1" d="M1666.47,286.68l10.08-11.58c22.87,21.08,44,30.87,74.52,30.87,31.17,0,52.55-17.51,52.55-41.26v-.6c0-22-11.58-34.72-58.79-44.22-49.87-10.1-70-27-70-58.49v-.59c0-30.88,28.2-54.62,66.79-54.62,30.28,0,50.18,8.31,71.24,25.23L1803,143.59c-19.59-16.92-39.18-23.46-62-23.46-30.58,0-50.77,17.53-50.77,39.19v.59c0,22,11.29,35.33,60.57,45.43,48.09,9.8,68.27,27,68.27,57.29v.59c0,33.55-28.8,56.71-68.87,56.71-33.24,0-58.78-11-83.71-33.25"/><path class="cls-1" d="M1853.48,286.68l10.09-11.58c22.86,21.08,43.94,30.87,74.52,30.87,31.16,0,52.54-17.51,52.54-41.26v-.6c0-22-11.58-34.72-58.78-44.22-49.87-10.1-70.07-27-70.07-58.49v-.59c0-30.88,28.21-54.62,66.81-54.62,30.27,0,50.17,8.31,71.24,25.23l-9.8,12.17c-19.59-16.92-39.18-23.46-62-23.46-30.58,0-50.77,17.53-50.77,39.19v.59c0,22,11.28,35.33,60.56,45.43,48.09,9.8,68.29,27,68.29,57.29v.59c0,33.55-28.81,56.71-68.88,56.71-33.24,0-58.78-11-83.71-33.25"/><polygon class="cls-1" points="979.03 316.99 963.38 316.99 866.42 128.29 769.45 316.99 753.81 316.99 866.42 97.84 979.03 316.99"/><polygon class="cls-2" points="321.63 411.99 231.27 231.27 411.99 231.27 321.63 411.99"/><polygon class="cls-3" points="205.97 180.72 115.61 0 296.33 0 205.97 180.72"/><polygon class="cls-4" points="115.61 431.3 205.97 250.58 296.32 431.3 115.61 431.3"/><polygon class="cls-5" points="411.99 200.03 231.27 200.03 321.63 19.31 411.99 200.03"/><polygon class="cls-6" points="0 200.03 90.36 19.31 180.72 200.03 0 200.03"/><polygon class="cls-6" points="0 200.03 90.36 19.31 180.72 200.03 0 200.03"/><polygon class="cls-6" points="180.72 200.03 0 200.03 90.36 19.31 180.72 200.03"/><path class="cls-1" d="M518.27,289.35l27.61-33C561.61,270.65,577,279,595.45,279c21.37,0,34.74-10.39,34.74-28.79v-.6c0-17.81-15.14-28.2-36.81-28.2-13.07,0-25,3.56-34.74,7.72l-26.42-17.52,5.94-102.42H665.8v40.08H577.34L575,185.15a101.54,101.54,0,0,1,27.31-3.56c40.37,0,72.73,19.59,72.73,66.5v.6c0,43.93-31.17,71.83-79,71.83-33.26,0-57.59-11.88-77.78-31.17"/><rect class="cls-1" x="808.25" y="216.91" width="111.04" height="13.96"/></g></g></svg>