<svg width="390" height="370" viewBox="0 0 390 370" fill="none" xmlns="http://www.w3.org/2000/svg">
<path d="M390 190C390 218.737 383.266 245.901 371.29 270C371.29 270 365.5 235 356.5 229.5C348 322.5 258.566 370 210 370C300.5 301.5 277.684 229.916 246.5 204C148.434 122.5 80.5 266 0.500032 213C-2.72074 199.525 44.299 149.912 45.5 135.5C48.5 99.5 80.5 73.6252 88 67C96.9361 59.1063 90.5 27.5 139 0.5C138 16 139 25.6417 139 25.6417C171.212 10.0705 209.749 1.00001 253.5 1.00001C238 13.3028 244.5 13.3028 244.5 13.3028C327.407 29.3961 390 102.388 390 190Z" fill="url(#paint0_linear_1631_605)"/>
<path fill-rule="evenodd" clip-rule="evenodd" d="M19.8523 222.274C25.2329 166.693 91.8361 107 191.5 107C211.055 107 230.598 111.083 248.5 118.618C250.903 119.629 246.645 112.548 242.622 105.858C238.912 99.6888 235.403 93.8522 237.5 95C277.5 104.5 306.899 172.111 315 205.5C328.5 196 331.5 179.5 331.5 179.5C331.5 311.531 273.349 361.894 210.202 369.847C300.466 301.393 277.66 229.897 246.5 204C193.315 159.8 148.993 181.778 106.803 202.699C77.5428 217.208 49.3077 231.21 19.8523 222.274Z" fill="url(#paint1_linear_1631_605)"/>
<path fill-rule="evenodd" clip-rule="evenodd" d="M43.9993 140.5C44.5695 139.21 44.9937 138.032 45.2479 136.986C52.5863 136.509 70.8903 129.519 87.5 105C104.3 80.2 139.5 68.6667 155 66C147.667 67.6667 131.3 73.2 124.5 82C120.954 86.5884 118.279 92.0467 115.675 97.3589C112.036 104.782 108.537 111.92 103 116C97.8261 119.812 91.4657 121.697 85.6151 123.43C80.7232 124.879 76.1876 126.223 73 128.5C66 133.5 50 142.5 44 140.5C43.9998 140.5 43.9996 140.5 43.9993 140.5Z" fill="url(#paint2_linear_1631_605)"/>
<path d="M304 271C298.588 320.203 237.5 358.585 210 370C222.5 360 270.5 324.975 270.5 264.5C270.5 204.025 225.5 170 194 151C254.751 151 309.5 221 304 271Z" fill="url(#paint3_linear_1631_605)"/>
<defs>
<linearGradient id="paint0_linear_1631_605" x1="0.341858" y1="0.5" x2="287.979" y2="238.912" gradientUnits="userSpaceOnUse">
<stop stop-color="#FFAEAE"/>
<stop offset="1" stop-color="#FF6666"/>
</linearGradient>
<linearGradient id="paint1_linear_1631_605" x1="19.8523" y1="94.8546" x2="209.996" y2="-21.1706" gradientUnits="userSpaceOnUse">
<stop stop-color="#FFC0C0"/>
<stop offset="1" stop-color="#FF4343"/>
</linearGradient>
<linearGradient id="paint2_linear_1631_605" x1="79" y1="44.5" x2="83.6339" y2="138.838" gradientUnits="userSpaceOnUse">
<stop stop-color="#FF7474"/>
<stop offset="1" stop-color="#FA4646"/>
</linearGradient>
<linearGradient id="paint3_linear_1631_605" x1="194" y1="151" x2="332.506" y2="216.613" gradientUnits="userSpaceOnUse">
<stop stop-color="#FF7272"/>
<stop offset="1" stop-color="#FF9696"/>
</linearGradient>
</defs>
</svg>
