<?xml version="1.0" encoding="UTF-8" standalone="no"?>
<!DOCTYPE svg PUBLIC "-//W3C//DTD SVG 1.1//EN" "http://www.w3.org/Graphics/SVG/1.1/DTD/svg11.dtd">
<svg width="100%" height="100%" viewBox="0 0 533 135" version="1.1" xmlns="http://www.w3.org/2000/svg" xmlns:xlink="http://www.w3.org/1999/xlink" xml:space="preserve" xmlns:serif="http://www.serif.com/" style="fill-rule:evenodd;clip-rule:evenodd;stroke-linejoin:round;stroke-miterlimit:2;">
    <g transform="matrix(1,0,0,1,-3589.01,-487.482)">
        <g id="Logo" transform="matrix(1,0,0,1,1512.52,-669.098)">
            <g transform="matrix(1.28427,0,0,1.28427,1477.15,-1510.22)">
                <path d="M478.196,2159.83C519.55,2178.2 631.769,2131.98 673.867,2181.38C715.965,2131.98 828.184,2178.2 869.538,2159.83C869.538,2159.83 873.493,2153.62 869.538,2155.38C828.184,2173.75 710.389,2119.21 673.867,2162.06C631.57,2119.76 519.55,2173.75 478.196,2155.38C475.115,2154.01 476.379,2159.02 478.196,2159.83Z" style="fill:rgb(28,53,51);"/>
            </g>
            <path d="M2113.82,1244.79C2106.25,1244.79 2099.65,1243.16 2094.02,1239.91C2088.39,1236.67 2084.06,1232.16 2081.03,1226.39C2078,1220.61 2076.49,1214.01 2076.49,1206.58C2076.49,1197.92 2077.98,1190.6 2080.98,1184.61C2083.97,1178.62 2088.14,1174.11 2093.48,1171.08C2098.82,1168.05 2104.99,1166.54 2111.99,1166.54C2116.53,1166.54 2120.9,1167.33 2125.08,1168.92C2126.16,1168.41 2127.73,1167.91 2129.79,1167.4C2131.84,1166.9 2133.45,1166.61 2134.6,1166.54C2136.7,1171.88 2137.74,1180.03 2137.74,1191L2127.24,1191C2126.52,1186.38 2124.74,1182.81 2121.89,1180.28C2119.04,1177.76 2115.63,1176.49 2111.66,1176.49C2106.9,1176.49 2103.16,1178.53 2100.46,1182.61C2097.75,1186.68 2096.4,1193.74 2096.4,1203.77C2096.4,1214.88 2097.74,1222.74 2100.41,1227.36C2103.07,1231.98 2107.15,1234.29 2112.63,1234.29C2114.65,1234.29 2116.35,1234.07 2117.72,1233.64C2119.09,1233.2 2120.25,1232.48 2121.18,1231.47L2121.18,1219.13C2121.18,1217.26 2120.37,1215.91 2118.75,1215.08C2117.13,1214.25 2114.58,1213.83 2111.12,1213.83C2111.12,1212.53 2111.37,1211.02 2111.88,1209.29C2112.38,1207.56 2112.99,1206.29 2113.72,1205.5L2137.09,1205.5C2139.91,1205.5 2141.86,1206.33 2142.94,1207.99C2144.02,1209.65 2144.56,1211.24 2144.56,1212.75C2144.56,1213.47 2144.38,1214.12 2144.02,1214.7C2141.42,1214.7 2139.4,1214.99 2137.96,1215.56L2137.96,1228.01C2137.96,1230.32 2138.36,1231.94 2139.15,1232.88C2139.66,1233.38 2139.91,1234.03 2139.91,1234.83C2139.91,1236.13 2138.72,1237.57 2136.34,1239.16C2133.95,1240.74 2130.76,1242.08 2126.76,1243.16C2122.75,1244.24 2118.44,1244.79 2113.82,1244.79ZM2517.18,1244.68C2509.25,1244.68 2502.9,1242.17 2498.14,1237.15C2493.37,1232.14 2490.99,1224.98 2490.99,1215.67C2490.99,1209.03 2492.13,1203.37 2494.4,1198.68C2496.67,1193.99 2499.87,1190.45 2503.98,1188.07C2508.09,1185.69 2512.85,1184.5 2518.26,1184.5C2523.46,1184.5 2528.02,1185.64 2531.96,1187.91C2535.89,1190.18 2538.95,1193.52 2541.16,1197.92C2543.36,1202.32 2544.46,1207.66 2544.46,1213.94C2544.46,1220.51 2543.32,1226.1 2541.05,1230.71C2538.77,1235.33 2535.58,1238.81 2531.47,1241.16C2527.36,1243.5 2522.59,1244.68 2517.18,1244.68ZM2608.53,1239.59C2608.31,1241.11 2607.32,1242.28 2605.55,1243.11C2603.78,1243.94 2601.53,1244.35 2598.79,1244.35C2595.11,1244.35 2592.06,1243.56 2589.64,1241.97C2587.22,1240.38 2585.33,1238.47 2583.96,1236.24C2582.59,1234 2581.11,1231.08 2579.52,1227.47C2577.93,1223.93 2576.55,1221.23 2575.36,1219.35C2574.16,1217.48 2572.63,1216.18 2570.76,1215.45L2570.76,1232.01C2570.76,1234.11 2571.21,1235.6 2572.11,1236.51C2573.01,1237.41 2574.58,1237.86 2576.82,1237.86C2576.82,1240.1 2575.95,1242.01 2574.22,1243.59L2550.41,1243.59C2548.68,1242.08 2547.81,1240.17 2547.81,1237.86C2549.98,1237.86 2551.51,1237.41 2552.41,1236.51C2553.31,1235.6 2553.76,1234.11 2553.76,1232.01L2553.76,1173.36C2553.76,1171.55 2553.26,1170.2 2552.25,1169.3C2551.24,1168.39 2549.33,1167.94 2546.51,1167.94L2546.51,1163.62C2549.11,1162.24 2552.41,1161.02 2556.41,1159.94C2560.42,1158.85 2563.58,1158.31 2565.89,1158.31C2567.62,1158.31 2568.86,1158.71 2569.62,1159.5C2570.38,1160.3 2570.76,1161.6 2570.76,1163.4L2570.76,1211.56L2582.66,1199.22C2584.03,1197.85 2584.72,1196.77 2584.72,1195.98C2584.72,1194.96 2583.94,1194.03 2582.39,1193.16C2580.84,1192.3 2579.34,1191.86 2577.9,1191.86C2577.9,1190.64 2578.11,1189.44 2578.55,1188.29C2578.98,1187.14 2579.59,1186.13 2580.39,1185.26L2604.74,1185.26C2606.11,1186.63 2606.79,1188.83 2606.79,1191.86C2605.06,1191.86 2603.71,1192.12 2602.74,1192.62C2601.76,1193.12 2600.77,1193.85 2599.76,1194.78L2583.31,1211.02C2585.98,1211.45 2588.23,1212.34 2590.07,1213.67C2591.91,1215.01 2593.59,1217.04 2595.11,1219.79C2596.91,1223.03 2597.85,1224.73 2597.92,1224.87C2600.3,1229.27 2602.09,1232.21 2603.28,1233.69C2604.47,1235.17 2606.18,1236.27 2608.42,1236.99L2608.53,1239.59ZM2327.68,1232.23C2332.22,1232.23 2336.45,1230.79 2340.34,1227.9C2340.92,1228.48 2341.42,1229.34 2341.86,1230.5C2342.29,1231.65 2342.51,1232.66 2342.51,1233.53C2342.51,1234.83 2341.64,1236.33 2339.91,1238.02C2338.18,1239.72 2335.78,1241.18 2332.71,1242.4C2329.64,1243.63 2326.2,1244.24 2322.38,1244.24C2317.04,1244.24 2312.37,1243.09 2308.36,1240.78C2304.36,1238.47 2301.27,1235.12 2299.11,1230.71C2296.94,1226.31 2295.86,1221.12 2295.86,1215.13C2295.86,1209 2297.03,1203.62 2299.38,1199.01C2301.72,1194.39 2304.95,1190.83 2309.06,1188.35C2313.18,1185.86 2317.83,1184.61 2323.03,1184.61C2329.59,1184.61 2334.82,1186.52 2338.72,1190.35C2342.62,1194.17 2344.56,1199.47 2344.56,1206.26C2344.56,1209.43 2344.06,1211.94 2343.05,1213.78C2342.04,1215.62 2340.23,1216.54 2337.64,1216.54L2314.26,1216.54C2314.69,1227 2319.17,1232.23 2327.68,1232.23ZM2446.13,1241.31C2444.21,1240.2 2442.46,1238.81 2440.88,1237.15C2436.12,1232.14 2433.74,1224.98 2433.74,1215.67C2433.74,1209.03 2434.88,1203.37 2437.15,1198.68C2439.42,1193.99 2442.62,1190.45 2446.73,1188.07C2450.84,1185.69 2455.6,1184.5 2461.01,1184.5C2466.21,1184.5 2470.77,1185.64 2474.7,1187.91C2478.64,1190.18 2481.7,1193.52 2483.9,1197.92C2486.1,1202.32 2487.2,1207.66 2487.2,1213.94C2487.2,1220.51 2486.07,1226.1 2483.8,1230.71C2481.52,1235.33 2478.33,1238.81 2474.22,1241.16C2471.77,1242.56 2469.09,1243.54 2466.18,1244.1C2459.46,1243.08 2452.76,1242.12 2446.13,1241.31ZM2199.22,1230.61C2199.22,1232.34 2199.67,1233.78 2200.57,1234.94C2201.47,1236.09 2202.75,1236.74 2204.41,1236.88L2204.41,1239.91C2203.26,1241.21 2201.47,1242.22 2199.05,1242.94C2196.64,1243.67 2194.2,1244.03 2191.75,1244.03C2189.29,1244.03 2187.2,1243.38 2185.47,1242.08C2183.74,1240.78 2182.58,1238.98 2182.01,1236.67C2178.54,1241.57 2173.6,1244.03 2167.18,1244.03C2162.13,1244.03 2158.2,1242.48 2155.38,1239.37C2152.57,1236.27 2151.16,1232.09 2151.16,1226.82L2151.16,1197.06C2151.16,1195.83 2150.71,1194.96 2149.81,1194.46C2148.91,1193.95 2147.59,1193.7 2145.86,1193.7L2145.86,1188.94C2146.94,1188.07 2149.02,1187.21 2152.08,1186.34C2155.15,1185.48 2158.41,1185.04 2161.88,1185.04C2163.9,1185.04 2165.38,1185.17 2166.31,1185.42C2167.25,1185.67 2167.9,1186.2 2168.26,1186.99C2168.62,1187.79 2168.8,1189.05 2168.8,1190.78L2168.8,1227.14C2168.8,1229.38 2169.18,1231.06 2169.94,1232.18C2170.7,1233.3 2171.94,1233.85 2173.67,1233.85C2175.12,1233.85 2176.54,1233.4 2177.95,1232.5C2179.36,1231.6 2180.56,1230.5 2181.57,1229.2L2181.57,1197.06C2181.57,1194.82 2179.55,1193.7 2175.51,1193.7L2175.51,1188.94C2176.67,1188 2178.78,1187.12 2181.85,1186.29C2184.91,1185.46 2188.28,1185.04 2191.96,1185.04C2194.92,1185.04 2196.87,1185.39 2197.81,1186.07C2198.75,1186.76 2199.22,1188.33 2199.22,1190.78L2199.22,1230.61ZM2223.53,1243.27L2208.95,1243.27C2207.3,1241.61 2206.47,1239.66 2206.47,1237.42C2208.63,1237.42 2210.2,1236.97 2211.17,1236.07C2212.15,1235.17 2212.64,1233.64 2212.64,1231.47L2212.64,1200.09C2212.64,1198.07 2212.15,1196.62 2211.17,1195.76C2210.2,1194.89 2208.31,1194.46 2205.49,1194.46L2205.49,1189.7C2207.22,1188.62 2210.16,1187.48 2214.31,1186.29C2218.46,1185.1 2221.98,1184.5 2224.87,1184.5C2226.52,1184.5 2227.72,1184.88 2228.44,1185.64C2229.16,1186.4 2229.52,1187.68 2229.52,1189.48L2229.52,1231.58C2229.52,1233.67 2230.04,1235.17 2231.09,1236.07C2232.13,1236.97 2233.74,1237.42 2235.9,1237.42C2235.9,1239.02 2235.48,1240.47 2234.64,1241.77C2230.95,1242.23 2227.24,1242.74 2223.53,1243.27ZM2369.31,1243.09C2367.82,1241.18 2367.07,1238.97 2367.07,1236.45C2369.53,1236.45 2371.26,1236.04 2372.27,1235.21C2373.28,1234.38 2373.78,1232.95 2373.78,1230.93L2373.78,1180.07C2373.78,1178.05 2373.28,1176.62 2372.27,1175.79C2371.26,1174.96 2369.53,1174.55 2367.07,1174.55C2367.07,1171.95 2367.87,1169.68 2369.45,1167.73C2373.49,1167.73 2379.74,1167.62 2388.18,1167.4C2391.93,1167.26 2394.49,1167.19 2395.86,1167.19C2407.19,1167.19 2415.2,1168.95 2419.89,1172.49C2424.58,1176.03 2426.92,1180.32 2426.92,1185.37C2426.92,1189.55 2425.86,1193.07 2423.73,1195.92C2421.6,1198.77 2418.08,1201.21 2413.18,1203.23C2419.6,1204.53 2424.18,1206.58 2426.92,1209.39C2429.66,1212.21 2431.03,1216.43 2431.03,1222.06C2431.03,1229.7 2428.06,1235.36 2422.11,1239.03C2407.23,1238.13 2393.15,1238.38 2380.57,1240.53C2376.67,1241.19 2372.91,1242.04 2369.31,1243.09ZM2248.17,1240.27C2245.65,1238.3 2243.57,1235.67 2241.91,1232.39C2239.85,1228.32 2238.83,1223.32 2238.83,1217.4C2238.83,1210.4 2240.14,1204.45 2242.78,1199.55C2245.41,1194.64 2248.89,1190.96 2253.22,1188.51C2257.55,1186.05 2262.31,1184.83 2267.51,1184.83C2268.73,1184.83 2270.93,1184.97 2274.11,1185.26L2273.78,1178.77L2273.78,1173.36C2273.78,1171.55 2273.28,1170.22 2272.27,1169.35C2271.26,1168.49 2269.35,1168.05 2266.53,1168.05L2266.53,1163.62C2269.06,1162.24 2272.34,1161.02 2276.38,1159.94C2280.42,1158.85 2283.6,1158.31 2285.9,1158.31C2287.56,1158.31 2288.77,1158.69 2289.53,1159.45C2290.29,1160.21 2290.67,1161.49 2290.67,1163.29L2290.67,1231.26C2290.67,1234.79 2292.4,1236.88 2295.86,1237.53L2295.95,1239.99C2281.18,1238.24 2264.95,1238.68 2248.17,1240.27ZM2518.05,1236.88C2520.57,1236.88 2522.45,1235.44 2523.68,1232.56C2524.9,1229.67 2525.52,1224.33 2525.52,1216.54C2525.52,1209.97 2525.19,1204.92 2524.54,1201.39C2523.89,1197.85 2522.99,1195.43 2521.84,1194.13C2520.68,1192.84 2519.2,1192.19 2517.4,1192.19C2514.87,1192.19 2512.98,1193.63 2511.72,1196.52C2510.45,1199.4 2509.82,1204.81 2509.82,1212.75C2509.82,1219.24 2510.15,1224.24 2510.8,1227.74C2511.45,1231.24 2512.37,1233.64 2513.56,1234.94C2514.75,1236.24 2516.24,1236.88 2518.05,1236.88ZM2460.8,1236.88C2463.32,1236.88 2465.2,1235.44 2466.43,1232.56C2467.65,1229.67 2468.26,1224.33 2468.26,1216.54C2468.26,1209.97 2467.94,1204.92 2467.29,1201.39C2466.64,1197.85 2465.74,1195.43 2464.59,1194.13C2463.43,1192.84 2461.95,1192.19 2460.15,1192.19C2457.62,1192.19 2455.73,1193.63 2454.47,1196.52C2453.2,1199.4 2452.57,1204.81 2452.57,1212.75C2452.57,1219.24 2452.9,1224.24 2453.55,1227.74C2454.2,1231.24 2455.12,1233.64 2456.31,1234.94C2457.5,1236.24 2458.99,1236.88 2460.8,1236.88ZM2396.19,1236.24C2406.29,1236.24 2411.34,1231.87 2411.34,1223.14C2411.34,1218.16 2410.08,1214.46 2407.55,1212.05C2405.03,1209.63 2400.91,1208.42 2395.21,1208.42L2391.64,1208.53L2391.64,1235.91C2393.59,1236.13 2395.1,1236.24 2396.19,1236.24ZM2268.7,1235.48C2270.93,1235.48 2272.63,1234.83 2273.78,1233.53L2273.78,1195.65C2272.27,1193.56 2270.25,1192.51 2267.72,1192.51C2264.55,1192.51 2262,1194.17 2260.09,1197.49C2258.18,1200.81 2257.22,1206.18 2257.22,1213.62C2257.22,1220.76 2258.29,1226.19 2260.42,1229.9C2262.55,1233.62 2265.3,1235.48 2268.7,1235.48ZM2322.38,1192.08C2320.14,1192.08 2318.26,1193.32 2316.75,1195.81C2315.23,1198.3 2314.4,1202.47 2314.26,1208.31L2325.19,1208.31C2326.35,1208.31 2327.1,1207.92 2327.46,1207.12C2327.82,1206.33 2328,1205.1 2328,1203.44C2328,1199.19 2327.5,1196.23 2326.49,1194.57C2325.48,1192.91 2324.11,1192.08 2322.38,1192.08ZM2394.89,1200.63C2404.56,1200.63 2409.39,1196.37 2409.39,1187.86C2409.39,1183.82 2408.29,1180.68 2406.09,1178.44C2403.89,1176.21 2400.55,1175.09 2396.08,1175.09C2394.06,1175.09 2392.58,1175.23 2391.64,1175.52L2391.64,1200.41C2392.94,1200.56 2394.02,1200.63 2394.89,1200.63ZM2231.58,1166.75C2231.58,1169.86 2230.62,1172.33 2228.71,1174.17C2226.8,1176.01 2224.25,1176.93 2221.08,1176.93C2217.97,1176.93 2215.5,1176.01 2213.66,1174.17C2211.82,1172.33 2210.9,1169.86 2210.9,1166.75C2210.9,1163.72 2211.86,1161.27 2213.77,1159.39C2215.68,1157.52 2218.19,1156.58 2221.29,1156.58C2224.4,1156.58 2226.89,1157.52 2228.76,1159.39C2230.64,1161.27 2231.58,1163.72 2231.58,1166.75Z" style="fill:rgb(28,53,51);fill-rule:nonzero;"/>
        </g>
    </g>
</svg>
