<svg id="Layer_1" data-name="Layer 1" xmlns="http://www.w3.org/2000/svg" viewBox="0 0 401.3 74.2"><defs><style>.cls-1{fill:#a38856;}.cls-2{fill:#2f2e2c;}</style></defs><path class="cls-1" d="M61.9.4,61.7.3H47.8L80,34.2V63H59.5V31.2L30.1.4,29.7,0,.1,31l-.1.1v43H36.2v-22a7.81,7.81,0,0,0-7.8-7.8H23.2V62.9h-12V34.2L29.7,14.8,48.2,34.2v40h43v-43Z"/><path class="cls-2" d="M223.6,45.2c0,3.4-.8,5.9-2.5,7.4s-4.2,2.2-7.4,2.2-5.8-.6-7.4-2.2-2.5-4-2.5-7.4V25.6a6,6,0,0,0-6-6h-4.7V45.7c0,6.4,1.8,11.1,5.5,14.1,3.3,2.7,8.2,4.4,14.9,4.4h.4c6.7-.1,11.6-1.7,14.9-4.4,3.7-3,5.5-7.7,5.5-14.1V19.6H223.6Z"/><path class="cls-2" d="M395.8,24c-3.3-2.7-8.2-4.4-14.9-4.4h-.4c-6.7.1-11.6,1.7-14.9,4.4-3.7,3-5.5,7.7-5.5,14.1v7.6c0,6.4,1.8,11.1,5.5,14.1,3.3,2.7,8.2,4.4,14.9,4.4h.4c6.7-.1,11.6-1.7,14.9-4.4,3.7-3,5.5-7.7,5.5-14.1V38.1C401.3,31.7,399.5,27,395.8,24Zm-5.3,15.5v5.7c0,3.4-.8,5.9-2.5,7.4s-4.2,2.2-7.4,2.2-5.8-.6-7.4-2.2-2.5-4-2.5-7.4V38.6c0-3.4.8-5.9,2.5-7.4s4.2-2.2,7.4-2.2,5.8.6,7.4,2.2,2.5,4,2.5,7.4Z"/><path class="cls-2" d="M137.6,37.1c-6.6-1.4-12-1.2-12-5.4,0-2.9,3-4.3,7.6-4.3h10.1a5.59,5.59,0,0,0,5.6-5.6V18.6H133.3c-10.5,0-18.5,4.8-18.6,13.9,0,7.9,5.8,10.9,14.1,12.7,6.7,1.3,12.3,1.2,12.3,5.6,0,3.1-3.1,4.6-8,4.6H117.3v8.8h15.6c10.8,0,19-4.9,19.1-14.3C152,41.6,145.9,38.7,137.6,37.1Z"/><path class="cls-2" d="M171.7,10.4H161v37c0,6.5,1.3,10.1,3.6,12.5a14.1,14.1,0,0,0,10.7,4.3h8.9V54.9h-6.6c-4.9,0-5.8-4.1-5.8-9V28.7h6.8a5.59,5.59,0,0,0,5.6-5.6V19.5H171.9V10.4Z"/><path class="cls-2" d="M246.9,23.8c-2.2,2.4-3.6,6-3.6,12.5V47.4c0,6.5,1.3,10.1,3.6,12.5a14.1,14.1,0,0,0,10.7,4.3h17.3V54.9h-15c-4.9,0-5.8-4.1-5.8-9V34.6a5.8,5.8,0,0,1,5.8-5.8h9.4a5.59,5.59,0,0,0,5.6-5.6V19.5H257.6C253.8,19.6,249.7,20.7,246.9,23.8Z"/><path class="cls-2" d="M286.3,23.8c-2.2,2.4-3.6,6-3.6,12.5V47.4c0,6.5,1.3,10.1,3.6,12.5A14.1,14.1,0,0,0,297,64.2h17.3V54.9h-15c-4.9,0-5.8-4.1-5.8-9V34.6a5.8,5.8,0,0,1,5.8-5.8h9.4a5.59,5.59,0,0,0,5.6-5.6V19.5H297C293.2,19.6,289.1,20.7,286.3,23.8Z"/><path class="cls-2" d="M325.2,23.8c-2.2,2.4-3.6,6-3.6,12.5V47.4c0,6.5,1.3,10.1,3.6,12.5a14.1,14.1,0,0,0,10.7,4.3h17.3V54.9h-15c-4.9,0-5.8-4.1-5.8-9V34.6a5.8,5.8,0,0,1,5.8-5.8h9.4a5.59,5.59,0,0,0,5.6-5.6V19.5H335.9C332,19.6,327.9,20.7,325.2,23.8Z"/></svg>