<?xml version="1.0" encoding="UTF-8"?><svg id="Layer_2" xmlns="http://www.w3.org/2000/svg" viewBox="0 0 174.43 253.79"><defs><style>.cls-1{fill:#fff;}</style></defs><g id="Layer_1-2"><g><path class="cls-1" d="m89.31,46.32c-.42-.41-1.02-.62-1.79-.62h-3.3c-1.67,0-2.5.93-2.5,2.78v12.27c0,.97.23,1.67.68,2.12.46.44,1.15.66,2.06.66h2.78c.91,0,1.58-.22,2.03-.66.44-.45.66-1.14.66-2.08v-12.31c0-1.02-.21-1.74-.62-2.16Zm0,0c-.42-.41-1.02-.62-1.79-.62h-3.3c-1.67,0-2.5.93-2.5,2.78v12.27c0,.97.23,1.67.68,2.12.46.44,1.15.66,2.06.66h2.78c.91,0,1.58-.22,2.03-.66.44-.45.66-1.14.66-2.08v-12.31c0-1.02-.21-1.74-.62-2.16Zm66.94,69.86c-4.04,0-7.77,1.34-10.78,3.57l-21.9-28.88c10.07-9.6,16.36-23.14,16.36-38.15C139.93,23.6,116.33,0,87.21,0s-52.71,23.6-52.71,52.72c0,15.29,6.52,29.06,16.92,38.69l-22.23,28.51c-3.06-2.33-6.87-3.74-11.01-3.74-10.04,0-18.18,8.14-18.18,18.18s8.14,18.18,18.18,18.18,18.18-8.14,18.18-18.18c0-4.46-1.61-8.54-4.28-11.7l22.36-28.67c9,7.16,20.38,11.44,32.77,11.44s24.3-4.47,33.39-11.92l21.94,28.94c-2.78,3.19-4.47,7.35-4.47,11.91,0,10.04,8.14,18.18,18.18,18.18s18.18-8.14,18.18-18.18-8.14-18.18-18.18-18.18Zm-138.07,7.29c3.81,0,6.89,3.08,6.89,6.89s-3.08,6.89-6.89,6.89-6.89-3.08-6.89-6.89,3.08-6.89,6.89-6.89Zm0,27.09c-3.97,0-7.63-1.44-10.45-3.83,1.27-5.36,5.46-9.29,10.45-9.29s9.19,3.93,10.45,9.29c-2.82,2.39-6.48,3.83-10.45,3.83Zm52.19-80.99h-20.49v-5.56l9.58-9.66c1.07-1.04,1.86-1.98,2.36-2.81.49-.83.74-1.69.74-2.58,0-.99-.28-1.72-.84-2.19-.57-.47-1.49-.71-2.78-.71h-8.49v-5.51c1.85-.35,3.5-.62,4.95-.81,1.45-.18,3.07-.28,4.87-.28,3.38,0,5.77.69,7.16,2.07,1.4,1.39,2.09,3.46,2.09,6.22,0,1.91-.36,3.6-1.1,5.07-.74,1.48-1.9,3.01-3.48,4.59l-5.88,5.92h11.31v6.24Zm26.53-7.73c0,2.5-.68,4.44-2.04,5.84-1.35,1.39-3.26,2.09-5.73,2.09h-6.36c-2.63,0-4.63-.68-5.98-2.05-1.36-1.37-2.03-3.33-2.03-5.88v-14.09c0-2.65.69-4.7,2.09-6.14,1.4-1.43,3.38-2.15,5.96-2.15h6.36c2.52,0,4.44.72,5.75,2.15,1.32,1.44,1.98,3.49,1.98,6.14v14.09Zm26.16,1.25c0,2.57-.67,4.33-2.01,5.27-1.35.94-3.2,1.41-5.56,1.41h-5.43c-2.45,0-4.4-.48-5.88-1.43-1.48-.95-2.21-2.7-2.21-5.25v-4.03c0-1.12.26-2.14.8-3.04.54-.89,1.32-1.46,2.34-1.71-.78-.4-1.35-.86-1.71-1.39-.37-.52-.6-1.07-.69-1.65-.09-.57-.14-1.3-.14-2.19v-3.38c0-2.15.67-3.72,2.01-4.73,1.34-1.01,3.06-1.51,5.16-1.51h5.67c2.07,0,3.76.5,5.09,1.51,1.33,1.01,1.99,2.58,1.99,4.73v3.38c0,.94-.19,1.92-.58,2.94-.39,1.02-1.04,1.61-1.95,1.77,1.21.3,2.02.95,2.45,1.95.43,1.01.65,2.09.65,3.24v4.11Zm33.19,60.38c3.81,0,6.89,3.08,6.89,6.89s-3.08,6.89-6.89,6.89-6.9-3.08-6.9-6.89,3.09-6.89,6.9-6.89Zm0,27.09c-3.98,0-7.62-1.44-10.45-3.83,1.26-5.36,5.46-9.29,10.45-9.29s9.18,3.93,10.45,9.29c-2.83,2.39-6.47,3.83-10.45,3.83Zm-42.41-93.31h-2.54c-.69,0-1.26.2-1.71.61-.44.4-.66.95-.66,1.65v2.21c0,.8.19,1.37.56,1.69.38.32.98.48,1.81.48h2.5c.91,0,1.53-.17,1.85-.52.32-.35.48-.9.48-1.65v-2.21c0-.7-.19-1.25-.58-1.65-.39-.41-.96-.61-1.71-.61Zm-2.54-5.87h2.5c.78,0,1.29-.19,1.53-.57.24-.37.36-.99.36-1.85v-1.57c0-.83-.15-1.37-.46-1.63-.31-.25-.77-.38-1.39-.38h-2.54c-.69,0-1.19.13-1.48.4-.3.27-.45.81-.45,1.61v1.57c0,.97.14,1.61.43,1.93.28.32.78.49,1.5.49Zm-23.78-5.68h-3.3c-1.67,0-2.5.93-2.5,2.78v12.27c0,.97.23,1.67.68,2.12.46.44,1.15.66,2.06.66h2.78c.91,0,1.58-.22,2.03-.66.44-.45.66-1.14.66-2.08v-12.31c0-1.02-.21-1.74-.62-2.16-.42-.41-1.02-.62-1.79-.62Z"/><g><path class="cls-1" d="m5.16,213.94c-1.2-.62-2.12-1.78-2.77-3.48s-.98-4.14-.98-7.32.34-5.46,1.01-7.15,1.62-2.86,2.83-3.51c1.22-.65,2.75-.97,4.58-.97,1.57,0,2.98.11,4.24.34,1.26.23,2.3.51,3.13.84v4.15c-1.9-.35-3.97-.53-6.22-.53-1.11,0-1.96.17-2.54.51-.58.34-1,1-1.27,1.97-.27.97-.4,2.44-.4,4.4s.11,3.36.34,4.32c.23.96.64,1.63,1.24,2.01.6.38,1.49.57,2.66.57,2.79,0,4.85-.1,6.19-.31v4.15c-1.75.64-4.22.96-7.4.96-1.9,0-3.45-.31-4.64-.93Z"/><path class="cls-1" d="m23.48,213.94c-1.37-.62-2.41-1.77-3.11-3.45s-1.05-4.11-1.05-7.29.35-5.61,1.05-7.31,1.74-2.85,3.11-3.47c1.37-.62,3.2-.93,5.5-.93s4.12.31,5.5.93c1.37.62,2.41,1.78,3.11,3.47.7,1.69,1.05,4.13,1.05,7.31s-.35,5.61-1.05,7.29c-.7,1.68-1.74,2.83-3.11,3.45-1.37.62-3.2.93-5.5.93s-4.12-.31-5.5-.93Zm8.16-4.41c.6-.36,1.02-1.03,1.27-2,.25-.97.37-2.42.37-4.33s-.12-3.46-.37-4.43c-.25-.97-.67-1.62-1.25-1.97s-1.48-.51-2.68-.51-2.06.17-2.65.51-1.01,1-1.27,1.97c-.26.97-.39,2.45-.39,4.43s.12,3.37.37,4.33c.25.97.67,1.64,1.27,2s1.49.54,2.66.54,2.06-.18,2.66-.54Z"/><path class="cls-1" d="m60.77,214.68l-1.64-13.59-3.47,13.59h-5.02l-3.47-13.41-1.55,13.41h-5.17l2.69-22.97h5.08l4.98,16.81,4.95-16.81h5.02l2.72,22.97h-5.14Z"/><path class="cls-1" d="m68.95,191.71h9.91c1.98,0,3.61.54,4.89,1.62,1.28,1.08,1.92,3.24,1.92,6.46s-.63,5.43-1.89,6.56c-1.26,1.14-2.82,1.7-4.68,1.7-.89,0-1.88-.09-2.97-.26-1.09-.18-1.7-.27-1.83-.29v7.18h-5.36v-22.97Zm9.32,11.55c.7,0,1.22-.27,1.55-.82.33-.55.5-1.42.5-2.62,0-2.21-.67-3.31-2.01-3.31h-3.99v6.75h3.96Z"/><path class="cls-1" d="m92.17,191.71h6.69l7,22.97h-5.54l-1.18-4.18h-7.31l-1.15,4.18h-5.51l7-22.97Zm5.73,13.99l-2.42-9.41-2.42,9.41h4.83Z"/><path class="cls-1" d="m108.11,191.71h4.24l8.79,13.9v-13.9h5.36v22.97h-4.27l-8.79-13.87v13.87h-5.33v-22.97Z"/><path class="cls-1" d="m130.07,191.71h5.36v22.97h-5.36v-22.97Z"/><path class="cls-1" d="m139.08,209.57v-12.35c0-1.96.54-3.37,1.63-4.23,1.08-.86,2.38-1.28,3.89-1.28,3.43.02,6.77.17,10.03.43v4.52h-8.42c-.56,0-.99.13-1.3.4-.31.27-.46.67-.46,1.21v2.54l8.67.31v4.21l-8.67.28v2.42c0,.62.15,1.08.45,1.38.3.3.69.45,1.16.45h8.58v4.49c-2.48.31-5.71.49-9.69.53-3.9,0-5.85-1.76-5.85-5.29Z"/><path class="cls-1" d="m160.92,214.65c-1.29-.14-2.44-.35-3.45-.62v-4.24c1.96.19,4.3.28,7.03.28,1.16,0,2.01-.14,2.57-.42.56-.28.84-.78.84-1.5v-.59c0-.54-.18-.96-.53-1.25-.35-.3-.82-.45-1.39-.45h-1.8c-2.37,0-4.14-.52-5.31-1.56-1.17-1.04-1.75-2.73-1.75-5.06v-1.08c0-2.23.65-3.89,1.95-4.98,1.3-1.09,3.21-1.64,5.73-1.64,2.17,0,4.52.29,7.06.87v4.21c-2.87-.19-5.01-.28-6.41-.28-1.09,0-1.91.15-2.45.45-.54.3-.81.85-.81,1.66v.43c0,1.28.77,1.92,2.32,1.92h2.14c2.04,0,3.61.56,4.69,1.67,1.08,1.12,1.63,2.58,1.63,4.4v1.15c0,1.84-.33,3.26-.98,4.26-.65,1-1.56,1.69-2.74,2.06-1.18.37-2.67.56-4.49.56-1.28,0-2.56-.07-3.85-.22Z"/><path class="cls-1" d="m33.77,253.57c-1.29-.14-2.44-.35-3.45-.62v-4.24c1.96.19,4.3.28,7.03.28,1.16,0,2.01-.14,2.57-.42.56-.28.84-.78.84-1.5v-.59c0-.54-.18-.96-.53-1.25-.35-.3-.82-.45-1.39-.45h-1.8c-2.37,0-4.14-.52-5.31-1.56-1.17-1.04-1.75-2.73-1.75-5.06v-1.08c0-2.23.65-3.89,1.95-4.98,1.3-1.09,3.21-1.64,5.73-1.64,2.17,0,4.52.29,7.06.87v4.21c-2.87-.19-5.01-.28-6.41-.28-1.09,0-1.91.15-2.45.45-.54.3-.81.85-.81,1.66v.43c0,1.28.77,1.92,2.32,1.92h2.14c2.04,0,3.61.56,4.69,1.67,1.08,1.12,1.63,2.58,1.63,4.4v1.15c0,1.84-.33,3.26-.98,4.26-.65,1-1.56,1.69-2.74,2.06-1.18.37-2.67.56-4.49.56-1.28,0-2.56-.07-3.85-.22Z"/><path class="cls-1" d="m48.93,248.5v-12.35c0-1.96.54-3.37,1.63-4.23,1.08-.86,2.38-1.28,3.89-1.28,3.43.02,6.77.17,10.03.43v4.52h-8.42c-.56,0-.99.13-1.3.4-.31.27-.46.67-.46,1.21v2.54l8.67.31v4.21l-8.67.28v2.42c0,.62.15,1.08.45,1.38.3.3.69.45,1.16.45h8.58v4.49c-2.48.31-5.71.49-9.69.53-3.9,0-5.85-1.76-5.85-5.29Z"/><path class="cls-1" d="m67.54,230.63h9.66c2.13,0,3.78.56,4.97,1.69,1.19,1.13,1.78,3.08,1.78,5.87,0,1.86-.29,3.25-.88,4.18s-1.41,1.66-2.46,2.2l4.12,9.04h-5.45l-3.44-8.17c-.58-.02-1.56-.03-2.94-.03v8.21h-5.36v-22.97Zm8.7,10.53c.78,0,1.37-.22,1.76-.67s.59-1.2.59-2.28-.2-1.78-.59-2.18-.98-.6-1.76-.6h-3.34v5.73h3.34Z"/><path class="cls-1" d="m85.65,230.63h5.54l4.83,17.18,4.83-17.18h5.48l-7,22.97h-6.69l-7-22.97Z"/><path class="cls-1" d="m107.73,248.5v-12.35c0-1.96.54-3.37,1.63-4.23,1.08-.86,2.38-1.28,3.89-1.28,3.43.02,6.77.17,10.03.43v4.52h-8.42c-.56,0-.99.13-1.3.4-.31.27-.46.67-.46,1.21v2.54l8.67.31v4.21l-8.67.28v2.42c0,.62.15,1.08.45,1.38.3.3.69.45,1.16.45h8.58v4.49c-2.48.31-5.71.49-9.69.53-3.9,0-5.85-1.76-5.85-5.29Z"/><path class="cls-1" d="m126.34,230.63h9.94c3.01,0,5.13,1.01,6.35,3.02s1.83,4.85,1.83,8.5c0,3.92-.67,6.81-2.01,8.67-1.34,1.86-3.4,2.79-6.16,2.79h-9.94v-22.97Zm9.41,18.17c1.24,0,2.11-.53,2.62-1.58s.76-2.75.76-5.08c0-1.84-.13-3.24-.39-4.21-.26-.97-.62-1.63-1.1-1.98-.48-.35-1.1-.53-1.89-.53h-4.06v13.38h4.06Z"/></g></g></g></svg>