<?xml version="1.0" encoding="UTF-8"?><svg id="Layer_2" xmlns="http://www.w3.org/2000/svg" viewBox="0 0 259.06 243.44"><defs><style>.cls-1{fill:#fff;}</style></defs><g id="Layer_1-2"><g><g><path class="cls-1" d="m38.66,200.79c-1.02-.65-1.79-1.79-2.31-3.42s-.77-3.9-.77-6.81.34-5.41,1.04-7.18c.69-1.78,1.68-3.04,2.97-3.79s2.92-1.13,4.88-1.13c2.29,0,4.25.2,5.88.59v4.21h-5.29c-1.44,0-2.49.4-3.14,1.21-.65.81-.97,2-.97,3.59.62-.23,1.28-.38,2-.46.71-.08,1.64-.12,2.77-.12,2.21,0,3.76.47,4.66,1.42.9.95,1.35,2.29,1.35,4.03v3.31c0,1.9-.51,3.3-1.53,4.2-1.02.9-2.44,1.35-4.26,1.35h-3.25c-1.65,0-2.99-.33-4.01-.98Zm5.99-3.82c.6,0,1.03-.15,1.3-.45.27-.3.4-.77.4-1.41v-1.15c0-.76-.16-1.28-.48-1.55-.32-.27-.88-.4-1.69-.4h-3.25c0,1.3.09,2.31.28,3.02s.48,1.21.88,1.5c.4.29.95.43,1.66.43h.9Z"/><path class="cls-1" d="m54,201.05v-4.3h6.87c1.24,0,2.11-.12,2.6-.37s.74-.69.74-1.33v-.74c0-1.22-.9-1.86-2.69-1.92l-5.57-.25v-4.12l5.33-.34c.93-.04,1.6-.19,2.03-.43.42-.25.63-.65.63-1.21v-.53c0-.7-.24-1.21-.73-1.52-.49-.31-1.31-.46-2.46-.46h-6.35v-4.27c3.22-.54,5.93-.8,8.14-.8s3.8.48,4.95,1.44c1.16.96,1.73,2.4,1.73,4.32v1.64c0,2.21-.91,3.61-2.72,4.21.93.29,1.67.87,2.23,1.75.56.88.84,1.96.84,3.24v1.02c0,1.84-.58,3.25-1.75,4.24-1.17.99-2.79,1.49-4.88,1.49-3.26,0-6.24-.25-8.95-.74Z"/><path class="cls-1" d="m80.44,196.5v-12.35c0-1.96.54-3.37,1.63-4.23s2.38-1.29,3.89-1.29c3.43.02,6.77.17,10.03.43v4.52h-8.42c-.56,0-.99.13-1.3.4s-.46.67-.46,1.21v2.54l8.67.31v4.21l-8.67.28v2.42c0,.62.15,1.08.45,1.38.3.3.69.45,1.16.45h8.58v4.49c-2.48.31-5.71.49-9.69.53-3.9,0-5.85-1.76-5.85-5.29Z"/><path class="cls-1" d="m97.53,178.64h5.54l4.83,17.18,4.83-17.18h5.48l-7,22.97h-6.69l-7-22.97Z"/><path class="cls-1" d="m119.61,196.5v-12.35c0-1.96.54-3.37,1.62-4.23,1.08-.86,2.38-1.29,3.89-1.29,3.43.02,6.77.17,10.03.43v4.52h-8.42c-.56,0-.99.13-1.3.4-.31.27-.46.67-.46,1.21v2.54l8.67.31v4.21l-8.67.28v2.42c0,.62.15,1.08.45,1.38.3.3.69.45,1.16.45h8.58v4.49c-2.48.31-5.71.49-9.69.53-3.9,0-5.85-1.76-5.85-5.29Z"/><path class="cls-1" d="m138.31,178.64h4.24l8.79,13.9v-13.9h5.36v22.97h-4.27l-8.79-13.87v13.87h-5.33v-22.97Z"/><path class="cls-1" d="m164.97,183.44h-6.04v-4.8h17.4v4.8h-6.04v18.17h-5.33v-18.17Z"/><path class="cls-1" d="m181.89,201.58c-1.29-.14-2.44-.35-3.45-.62v-4.24c1.96.19,4.3.28,7.03.28,1.16,0,2.01-.14,2.57-.42s.84-.78.84-1.5v-.59c0-.54-.18-.95-.53-1.25-.35-.3-.82-.45-1.39-.45h-1.79c-2.37,0-4.14-.52-5.31-1.56-1.17-1.04-1.75-2.73-1.75-5.06v-1.08c0-2.23.65-3.89,1.95-4.99,1.3-1.09,3.21-1.64,5.73-1.64,2.17,0,4.52.29,7.06.87v4.21c-2.87-.19-5-.28-6.41-.28-1.09,0-1.91.15-2.45.45-.54.3-.81.85-.81,1.66v.43c0,1.28.77,1.92,2.32,1.92h2.14c2.04,0,3.61.56,4.69,1.67,1.08,1.11,1.63,2.58,1.63,4.4v1.15c0,1.84-.33,3.26-.98,4.26-.65,1-1.56,1.69-2.74,2.06-1.18.37-2.67.56-4.49.56-1.28,0-2.57-.07-3.85-.22Z"/><path class="cls-1" d="m207.03,200.98c-.92-.53-1.64-1.25-2.15-2.18-.52-.93-.77-1.99-.77-3.19,0-1.13.24-2.19.71-3.17s1.16-1.85,2.04-2.62l1.8-1.52-.37-.56c-.58-.91-.94-1.67-1.1-2.29-.16-.62-.23-1.28-.23-1.98,0-1.61.55-2.8,1.64-3.56s2.54-1.15,4.33-1.15c1.13,0,2.29.08,3.47.23,1.18.16,2.11.35,2.79.57v3.9h-5.23c-1.11,0-1.67.42-1.67,1.27,0,.29.11.65.34,1.07.23.42.59.97,1.08,1.66l3.65,4.98,4.37-3.84,1.92,2.42-2.07,3.25-1.64,1.58,4.33,5.76h-5.48l-2.2-2.72-1.21,1.02c-.79.66-1.58,1.14-2.4,1.42-.82.29-1.76.43-2.83.43-1.16,0-2.19-.26-3.11-.79Zm5.11-4.26c.32-.12.63-.35.94-.68l.71-.71-2.6-3.38-.99.93c-.39.35-.66.69-.8,1.01-.14.32-.22.69-.22,1.1,0,.56.17,1.02.53,1.38.35.36.8.54,1.36.54.39,0,.75-.06,1.07-.19Z"/><path class="cls-1" d="m0,239.98v-4.3h6.87c1.24,0,2.11-.12,2.6-.37s.74-.69.74-1.33v-.74c0-1.22-.9-1.86-2.69-1.92l-5.57-.25v-4.12l5.33-.34c.93-.04,1.6-.19,2.03-.43.42-.25.63-.65.63-1.21v-.53c0-.7-.24-1.21-.73-1.52-.49-.31-1.31-.46-2.46-.46H.4v-4.27c3.22-.54,5.93-.8,8.14-.8s3.8.48,4.95,1.44c1.16.96,1.73,2.4,1.73,4.32v1.64c0,2.21-.91,3.61-2.72,4.21.93.29,1.67.87,2.23,1.75.56.88.84,1.96.84,3.24v1.02c0,1.84-.58,3.25-1.75,4.24-1.17.99-2.79,1.49-4.88,1.49-3.26,0-6.24-.25-8.95-.74Z"/><path class="cls-1" d="m19.09,243.33c-.34-.07-.55-.12-.63-.14v-1.7c.33,0,.56-.05.7-.14.13-.09.2-.26.2-.51v-.68h-.31c-.21,0-.38-.06-.51-.19-.13-.12-.2-.31-.2-.56v-2.85c0-.52.24-.77.71-.77h3.03c.47,0,.71.26.71.77v4.4c0,.93-.25,1.57-.76,1.94-.51.36-1.13.54-1.87.54-.37,0-.73-.04-1.07-.11Z"/><path class="cls-1" d="m28.78,239.71c-1.02-.65-1.79-1.79-2.31-3.42-.52-1.63-.77-3.9-.77-6.81s.35-5.41,1.04-7.18,1.68-3.04,2.97-3.79,2.92-1.13,4.88-1.13c2.29,0,4.25.2,5.88.59v4.21h-5.29c-1.45,0-2.49.4-3.14,1.21-.65.81-.98,2-.98,3.59.62-.23,1.29-.38,2-.46.71-.08,1.64-.12,2.77-.12,2.21,0,3.76.47,4.66,1.42.9.95,1.35,2.29,1.35,4.03v3.31c0,1.9-.51,3.3-1.53,4.2-1.02.9-2.44,1.35-4.26,1.35h-3.25c-1.65,0-2.99-.33-4.01-.98Zm5.99-3.82c.6,0,1.03-.15,1.3-.45s.4-.77.4-1.41v-1.15c0-.76-.16-1.28-.48-1.55s-.88-.4-1.69-.4h-3.25c0,1.3.09,2.31.28,3.02.19.71.48,1.21.88,1.5s.96.43,1.66.43h.9Z"/><path class="cls-1" d="m44.12,239.98v-4.3h6.87c1.24,0,2.11-.12,2.6-.37.5-.25.74-.69.74-1.33v-.74c0-1.22-.9-1.86-2.69-1.92l-5.57-.25v-4.12l5.33-.34c.93-.04,1.61-.19,2.03-.43s.63-.65.63-1.21v-.53c0-.7-.24-1.21-.73-1.52-.49-.31-1.31-.46-2.46-.46h-6.35v-4.27c3.22-.54,5.93-.8,8.14-.8s3.8.48,4.95,1.44,1.73,2.4,1.73,4.32v1.64c0,2.21-.91,3.61-2.72,4.21.93.29,1.67.87,2.23,1.75.56.88.84,1.96.84,3.24v1.02c0,1.84-.58,3.25-1.75,4.24-1.17.99-2.79,1.49-4.88,1.49-3.26,0-6.25-.25-8.95-.74Z"/><path class="cls-1" d="m61.99,239.98v-4.3h6.87c1.24,0,2.11-.12,2.6-.37.5-.25.74-.69.74-1.33v-.74c0-1.22-.9-1.86-2.69-1.92l-5.57-.25v-4.12l5.33-.34c.93-.04,1.61-.19,2.03-.43s.63-.65.63-1.21v-.53c0-.7-.24-1.21-.73-1.52-.49-.31-1.31-.46-2.46-.46h-6.35v-4.27c3.22-.54,5.93-.8,8.14-.8s3.8.48,4.95,1.44,1.73,2.4,1.73,4.32v1.64c0,2.21-.91,3.61-2.72,4.21.93.29,1.67.87,2.23,1.75.56.88.84,1.96.84,3.24v1.02c0,1.84-.58,3.25-1.75,4.24-1.17.99-2.79,1.49-4.88,1.49-3.26,0-6.25-.25-8.95-.74Z"/><path class="cls-1" d="m93.91,217.56h6.69l7,22.97h-5.54l-1.18-4.18h-7.31l-1.15,4.18h-5.51l7-22.97Zm5.73,14l-2.42-9.41-2.42,9.41h4.83Z"/><path class="cls-1" d="m112.92,222.36h-6.04v-4.8h17.4v4.8h-6.04v18.17h-5.33v-18.17Z"/><path class="cls-1" d="m131.62,222.36h-6.04v-4.8h17.4v4.8h-6.04v18.17h-5.33v-18.17Z"/><path class="cls-1" d="m145,235.42v-12.35c0-1.96.54-3.37,1.63-4.23s2.38-1.29,3.89-1.29c3.43.02,6.77.17,10.03.43v4.52h-8.42c-.56,0-.99.13-1.3.4s-.46.67-.46,1.21v2.54l8.67.31v4.21l-8.67.28v2.42c0,.62.15,1.08.45,1.38.3.3.69.45,1.16.45h8.58v4.49c-2.48.31-5.71.49-9.69.53-3.9,0-5.85-1.76-5.85-5.29Z"/><path class="cls-1" d="m163.7,217.56h4.24l8.79,13.9v-13.9h5.36v22.97h-4.27l-8.79-13.87v13.87h-5.33v-22.97Z"/><path class="cls-1" d="m185.65,217.56h9.94c3.01,0,5.13,1.01,6.35,3.02s1.83,4.85,1.83,8.5c0,3.92-.67,6.81-2.01,8.67-1.34,1.86-3.4,2.79-6.16,2.79h-9.94v-22.97Zm9.41,18.17c1.24,0,2.11-.53,2.62-1.58s.76-2.75.76-5.08c0-1.84-.13-3.24-.39-4.21-.26-.97-.62-1.63-1.1-1.98-.48-.35-1.1-.53-1.89-.53h-4.06v13.38h4.06Z"/><path class="cls-1" d="m206.86,235.42v-12.35c0-1.96.54-3.37,1.63-4.23s2.38-1.29,3.89-1.29c3.43.02,6.77.17,10.03.43v4.52h-8.42c-.56,0-.99.13-1.3.4s-.46.67-.46,1.21v2.54l8.67.31v4.21l-8.67.28v2.42c0,.62.15,1.08.45,1.38.3.3.69.45,1.16.45h8.58v4.49c-2.48.31-5.71.49-9.69.53-3.9,0-5.85-1.76-5.85-5.29Z"/><path class="cls-1" d="m225.16,235.42v-12.35c0-1.96.54-3.37,1.62-4.23,1.08-.86,2.38-1.29,3.89-1.29,3.43.02,6.77.17,10.03.43v4.52h-8.42c-.56,0-.99.13-1.3.4-.31.27-.46.67-.46,1.21v2.54l8.67.31v4.21l-8.67.28v2.42c0,.62.15,1.08.45,1.38.3.3.69.45,1.16.45h8.58v4.49c-2.48.31-5.71.49-9.69.53-3.9,0-5.85-1.76-5.85-5.29Z"/><path class="cls-1" d="m247,240.5c-1.29-.14-2.44-.35-3.45-.62v-4.24c1.96.19,4.3.28,7.03.28,1.16,0,2.01-.14,2.57-.42s.84-.78.84-1.5v-.59c0-.54-.18-.95-.53-1.25-.35-.3-.82-.45-1.39-.45h-1.79c-2.37,0-4.14-.52-5.31-1.56-1.17-1.04-1.75-2.73-1.75-5.06v-1.08c0-2.23.65-3.89,1.95-4.99,1.3-1.09,3.21-1.64,5.73-1.64,2.17,0,4.52.29,7.06.87v4.21c-2.87-.19-5-.28-6.41-.28-1.09,0-1.91.15-2.45.45-.54.3-.81.85-.81,1.66v.43c0,1.28.77,1.92,2.32,1.92h2.14c2.04,0,3.61.56,4.69,1.67,1.08,1.11,1.63,2.58,1.63,4.4v1.15c0,1.84-.33,3.26-.98,4.26-.65,1-1.56,1.69-2.74,2.06-1.18.37-2.67.56-4.49.56-1.28,0-2.57-.07-3.85-.22Z"/></g><g><path class="cls-1" d="m103.45,66.52v23.87c0,1.92,1.56,3.48,3.48,3.48s3.48-1.56,3.48-3.48v-21.69l-11.02-11.64c-2.41-2.54-3.36-6.09-2.54-9.5l2.65-11.06h-3.1l2.33-3.53c.49.22,1.01.4,1.55.51.56-1.65,1.51-3.09,2.73-4.23,1.6-1.49,3.67-2.45,5.93-2.69.34-.04.68-.06,1.03-.06v-11.39c0-1.92-1.56-3.48-3.48-3.48s-3.48,1.56-3.48,3.48v4.2c-.42-.08-.84-.12-1.28-.12s-.87.05-1.29.12v-9.91c0-1.92-1.56-3.48-3.48-3.48s-3.48,1.56-3.48,3.48v18.9l-1.69,2.56-1.68-2.56V9.41c0-1.92-1.56-3.48-3.48-3.48s-3.48,1.56-3.48,3.48v9.91c-.42-.07-.85-.12-1.29-.12-.89,0-1.74.17-2.52.46V3.48c0-1.92-1.56-3.48-3.48-3.48s-3.48,1.56-3.48,3.48v18.9l-2.14,3.24V9.41c0-1.92-1.56-3.48-3.48-3.48s-3.48,1.56-3.48,3.48v4.32c-.79-.29-1.63-.46-2.52-.46-3.99,0-7.22,3.23-7.22,7.22s3.23,7.22,7.22,7.22c.89,0,1.74-.17,2.52-.46v2.1c0,.42.09.84.23,1.23h-8.97l-5.41-8.2V3.48c0-1.92-1.56-3.48-3.48-3.48s-3.48,1.56-3.48,3.48v19.94c0,.68.2,1.35.57,1.91l9.39,14.24v15.21c-.04.22-.07.45-.07.69v28.99c0,1.92,1.56,3.48,3.48,3.48s3.48-1.56,3.48-3.48v-23.87h3.46v23.87c0,1.92,1.56,3.48,3.48,3.48s3.48-1.56,3.48-3.48v-28.99c0-.24-.02-.47-.07-.69v-15.14l3.86,5.86v15.21c-.05.22-.07.45-.07.69v28.99c0,1.92,1.56,3.48,3.48,3.48s3.48-1.56,3.48-3.48v-23.87h3.46v23.87c0,1.92,1.56,3.48,3.48,3.48s3.48-1.56,3.48-3.48v-28.99c0-.24-.02-.47-.07-.69v-15.21l1.31-1.99,1.31,1.99v15.21c-.05.22-.07.45-.07.69v28.99c0,1.92,1.56,3.48,3.48,3.48s3.48-1.56,3.48-3.48v-23.87h3.46Zm-21.6-30.01h-6.21l-2.13-3.23,2.12-3.21c1.26,2.13,3.57,3.57,6.22,3.57,1.07,0,2.08-.24,3-.66l2.33,3.53h-5.32Z"/><path class="cls-1" d="m117.89,30.18c.36-.57.74-1.13,1.16-1.65.39-.49.8-.96,1.24-1.4.77-.78,1.62-1.48,2.53-2.1.99-.68,2.06-1.25,3.19-1.71v-5.58c0-1.92-1.56-3.48-3.48-3.48-.86,0-1.63.32-2.24.83v-5.67c0-1.92-1.56-3.48-3.48-3.48s-3.48,1.56-3.48,3.48v17.65c.8.27,1.54.63,2.23,1.07.88.56,1.66,1.26,2.33,2.04h0Z"/><path class="cls-1" d="m115.61,74.2l-2.72-2.87v20.78l2.72-3.32v-14.59Z"/><path class="cls-1" d="m213.57,2.61c-1.92,0-3.48,1.56-3.48,3.48v18.9l-5.41,8.2h-8.97c.15-.39.23-.81.23-1.23v-2.1c.79.29,1.63.46,2.52.46,3.99,0,7.22-3.23,7.22-7.22s-3.23-7.22-7.22-7.22c-.89,0-1.74.17-2.52.46v-4.32c0-1.92-1.56-3.48-3.48-3.48s-3.48,1.56-3.48,3.48v16.21l-2.14-3.24V6.09c0-1.92-1.56-3.48-3.48-3.48s-3.48,1.56-3.48,3.48v16.18c-.79-.29-1.63-.46-2.52-.46-.44,0-.87.05-1.29.12v-9.91c0-1.92-1.56-3.48-3.48-3.48s-3.48,1.56-3.48,3.48v18.9l-1.69,2.56-.26-.4v13.45l.26-.4,1.31,1.99v15.21c-.04.22-.07.45-.07.69v28.99c0,1.92,1.56,3.48,3.48,3.48s3.48-1.56,3.48-3.48v-23.87h3.46v23.87c0,1.92,1.56,3.48,3.48,3.48s3.48-1.56,3.48-3.48v-28.99c0-.24-.02-.47-.07-.69v-15.21l3.86-5.86v15.14c-.05.22-.07.45-.07.69v28.99c0,1.92,1.56,3.48,3.48,3.48s3.48-1.56,3.48-3.48v-23.87h3.46v23.87c0,1.92,1.56,3.48,3.48,3.48s3.48-1.56,3.48-3.48v-28.99c0-.24-.03-.47-.07-.69v-15.21l9.39-14.24c.37-.57.57-1.23.57-1.91V6.09c0-1.92-1.56-3.48-3.48-3.48h0Zm-29.99,36.51h-11.53l2.33-3.53c.91.42,1.92.66,3,.66,2.65,0,4.97-1.44,6.22-3.57l2.12,3.21-2.13,3.23Z"/><path class="cls-1" d="m166.12,51.33c-.19.4-.4.79-.65,1.16l-13.67,20.73v21.57c.07.49.11.99.11,1.48v.17c.13.02.25.04.38.04,1.92,0,3.48-1.56,3.48-3.48v-23.87h3.46v23.87c0,1.92,1.56,3.48,3.48,3.48s3.48-1.56,3.48-3.48v-28.99c0-.24-.03-.47-.07-.69v-12Z"/><path class="cls-1" d="m145.88,12.02c0-1.92-1.56-3.48-3.48-3.48s-3.48,1.56-3.48,3.48v.46c-.61-.52-1.38-.84-2.24-.84-1.92,0-3.48,1.56-3.48,3.48v6.92c2.01.07,3.94.48,5.72,1.19.42.17.83.36,1.24.55,2.21,1.08,4.16,2.6,5.72,4.47V12.02Z"/><path class="cls-1" d="m148.81,68.79l12.53-19.01c.58-.88.88-1.9.88-2.95V8.94c0-.13,0-.26-.02-.39-.2-2.78-2.52-4.98-5.35-4.98s-5.37,2.4-5.37,5.37v36.27l-2.61,3.96-5.73,8.7h-21.4l-8.97-9.47,1.78-7.41.7-2.91s0-.02,0-.03c.03-.14.06-.28.08-.42,0-.07.02-.14.03-.21.07-.62.03-1.22-.11-1.8-.13-.55-.34-1.08-.63-1.56-.72-1.19-1.89-2.1-3.34-2.45-.04,0-.07,0-.1-.02-.39-.09-.78-.13-1.16-.13-.02,0-.04,0-.06,0-2.4.03-4.57,1.67-5.15,4.11l-.23.94-.35,1.46-2.58,10.75c-.42,1.77.07,3.63,1.32,4.95l7.44,7.85,2.55,2.69,7.59,8.02v18.32l-.7.86-5.89,7.2-11.24,13.74c-1.8,2.2-1.57,5.42.51,7.35l13.68,12.63c1.03.95,2.34,1.42,3.64,1.42,1.45,0,2.89-.58,3.95-1.73,2.01-2.18,1.88-5.57-.3-7.59l-9.96-9.2,9.05-11.06h12.95v36.83c0,2.96,2.4,5.37,5.37,5.37s5.37-2.4,5.37-5.37v-44.72c0-.36-.04-.72-.11-1.07v-23.47l1.95-2.96Z"/><path class="cls-1" d="m120.54,42.22c.82,3.44,3.07,6.32,6.09,7.98,1.1.6,2.3,1.04,3.57,1.29.77.15,1.56.23,2.37.23,4.86,0,9.06-2.81,11.09-6.89.47-.95.84-1.97,1.05-3.04.16-.79.25-1.61.25-2.45,0-.97-.12-1.9-.33-2.81-.65-2.81-2.26-5.25-4.46-6.96-.4-.31-.81-.59-1.24-.85-.75-.45-1.55-.82-2.39-1.11-1.05-.35-2.17-.57-3.33-.62-.21-.01-.41-.03-.63-.03-1.8,0-3.5.39-5.05,1.08-.53.23-1.03.51-1.51.81-3.14,1.96-5.33,5.28-5.75,9.14,0,.07,0,.14-.02.21-.03.33-.05.67-.05,1.01,0,.04,0,.08,0,.12,0,.4.02.8.06,1.19.05.58.16,1.14.29,1.7h0Z"/></g></g></g></svg>