<?xml version="1.0" encoding="UTF-8"?><svg id="Layer_2" xmlns="http://www.w3.org/2000/svg" viewBox="0 0 253.43 257.32"><defs><style>.cls-1{fill:#fff;}</style></defs><g id="Layer_1-2"><g><g><path class="cls-1" d="m172.34,59.24c.91,0,1.59-.22,2.03-.66s.66-1.13.66-2.07v-12.32c0-1.02-.21-1.74-.62-2.15s-1.01-.62-1.79-.62h-3.3c-1.66,0-2.5.93-2.5,2.78v12.28c0,.97.23,1.67.68,2.11.46.44,1.14.66,2.05.66h2.78Z"/><path class="cls-1" d="m145.21,59.24c.91,0,1.59-.22,2.03-.66s.66-1.13.66-2.07v-12.32c0-1.02-.21-1.74-.62-2.15s-1.01-.62-1.79-.62h-3.3c-1.66,0-2.5.93-2.5,2.78v12.28c0,.97.23,1.67.68,2.11.46.44,1.14.66,2.05.66h2.78Z"/><path class="cls-1" d="m109.67,56.5v-12.32c0-1.02-.21-1.74-.62-2.15s-1.01-.62-1.79-.62h-3.3c-1.66,0-2.5.93-2.5,2.78v12.28c0,.97.23,1.67.68,2.11.46.44,1.14.66,2.05.66h2.78c.91,0,1.59-.22,2.03-.66.44-.44.66-1.13.66-2.07Z"/><path class="cls-1" d="m215.57,11.11H37.86c-3.33,0-6.05,2.67-6.05,5.95v115.93h189.81V17.06c0-3.28-2.71-5.95-6.05-5.95Zm-93.79,49.01c0-.67.31-1.01.93-1.01h3.95c.62,0,.93.34.93,1.01v5.72c0,1.21-.33,2.05-.99,2.52-.66.47-1.47.7-2.44.7-.48,0-.95-.05-1.39-.14-.44-.09-.72-.15-.83-.18v-2.21c.43,0,.73-.06.91-.18.17-.12.26-.34.26-.66v-.89h-.4c-.27,0-.49-.08-.66-.24s-.26-.4-.26-.72v-3.7Zm-57,5.15h-20.49v-5.55l9.58-9.66c1.07-1.05,1.86-1.99,2.35-2.82.5-.83.75-1.69.75-2.58,0-.99-.28-1.72-.85-2.19s-1.49-.71-2.78-.71h-8.49v-5.51c1.85-.35,3.5-.62,4.95-.8,1.45-.19,3.07-.28,4.87-.28,3.38,0,5.77.69,7.16,2.07,1.4,1.38,2.09,3.46,2.09,6.22,0,1.91-.37,3.6-1.11,5.07s-1.9,3-3.48,4.59l-5.88,5.92h11.31v6.24Zm4.55-6h10.55c2.04,0,3.06-.97,3.06-2.9v-1.61c0-.83-.19-1.46-.58-1.89-.39-.43-1.01-.64-1.87-.64h-2.01c-.75,0-1.31.14-1.67.42-.36.28-.58.73-.66,1.35h-6.6l.84-18.6h18.31v6.24h-12.36l-.24,5.71c.81-.7,2.07-1.05,3.78-1.05h3.14c2.23,0,3.92.66,5.09,1.99,1.17,1.33,1.75,3.05,1.75,5.17v4.39c0,2.66-.85,4.6-2.54,5.82-1.69,1.22-4.28,1.83-7.77,1.83-2.17,0-5.58-.25-10.22-.76v-5.47Zm20.75,54.3h-10.91c-2.55,0-4.43-.59-5.64-1.77-1.21-1.18-1.81-3.07-1.81-5.67v-22.42h6.96v21.25c0,1.58.78,2.37,2.33,2.37h9.06v6.24Zm11.39,0h-6.96v-29.87h6.96v29.87Zm-4.95-50.15c-1.36-1.37-2.03-3.33-2.03-5.88v-14.09c0-2.66.7-4.7,2.09-6.14,1.39-1.44,3.38-2.15,5.96-2.15h6.36c2.52,0,4.44.72,5.76,2.15s1.97,3.48,1.97,6.14v14.09c0,2.5-.68,4.44-2.03,5.84-1.35,1.4-3.27,2.09-5.74,2.09h-6.36c-2.63,0-4.62-.68-5.98-2.05Zm34.94,50.15h-5.55l-11.43-18.03v18.03h-6.92v-29.87h5.51l11.43,18.07v-18.07h6.96v29.87Zm1.27-56.03v-14.09c0-2.66.7-4.7,2.09-6.14s3.38-2.15,5.96-2.15h6.36c2.52,0,4.44.72,5.76,2.15,1.31,1.44,1.97,3.48,1.97,6.14v14.09c0,2.5-.68,4.44-2.03,5.84-1.36,1.4-3.27,2.09-5.74,2.09h-6.36c-2.63,0-4.62-.68-5.98-2.05-1.35-1.37-2.03-3.33-2.03-5.88Zm24.77,32.6h-10.95c-.72,0-1.29.17-1.69.52-.4.35-.6.87-.6,1.57v3.3l11.27.4v5.47l-11.27.36v3.14c0,.81.19,1.4.58,1.79.39.39.89.58,1.51.58h11.15v5.84c-3.22.4-7.42.63-12.6.68-5.07,0-7.61-2.29-7.61-6.88v-16.06c0-2.55.7-4.38,2.11-5.5,1.41-1.11,3.09-1.67,5.05-1.67,4.45.03,8.8.21,13.04.56v5.88Zm2.35-32.6v-14.09c0-2.66.7-4.7,2.09-6.14s3.38-2.15,5.96-2.15h6.36c2.52,0,4.44.72,5.76,2.15,1.31,1.44,1.97,3.48,1.97,6.14v14.09c0,2.5-.68,4.44-2.03,5.84-1.36,1.4-3.27,2.09-5.74,2.09h-6.36c-2.63,0-4.62-.68-5.98-2.05-1.35-1.37-2.03-3.33-2.03-5.88Zm22.72,47.34c0,2.39-.42,4.23-1.27,5.53-.85,1.3-2.03,2.19-3.56,2.68-1.53.48-3.48.72-5.84.72-1.66,0-3.33-.09-5.01-.28s-3.17-.46-4.49-.81v-5.51c2.55.24,5.59.36,9.14.36,1.5,0,2.62-.18,3.34-.54s1.09-1.01,1.09-1.95v-.76c0-.7-.23-1.24-.68-1.63-.46-.39-1.06-.58-1.81-.58h-2.33c-3.09,0-5.39-.68-6.9-2.03-1.52-1.36-2.27-3.55-2.27-6.58v-1.41c0-2.9.85-5.06,2.54-6.48,1.69-1.42,4.17-2.13,7.45-2.13,2.82,0,5.88.38,9.18,1.13v5.47c-3.73-.24-6.51-.36-8.33-.36-1.42,0-2.48.2-3.18.58-.7.39-1.05,1.11-1.05,2.15v.56c0,1.66,1.01,2.5,3.02,2.5h2.78c2.66,0,4.69.72,6.1,2.17,1.41,1.45,2.11,3.35,2.11,5.72v1.49Zm26.55-47.34c0,2.5-.68,4.44-2.03,5.84-1.35,1.4-3.27,2.09-5.74,2.09h-6.36c-2.63,0-4.62-.68-5.98-2.05-1.36-1.37-2.03-3.33-2.03-5.88v-14.09c0-2.66.7-4.7,2.09-6.14,1.39-1.44,3.38-2.15,5.96-2.15h6.36c2.52,0,4.44.72,5.76,2.15s1.97,3.48,1.97,6.14v14.09Z"/><path class="cls-1" d="m199.75,41.41h-3.3c-1.66,0-2.5.93-2.5,2.78v12.28c0,.97.23,1.67.68,2.11.46.44,1.14.66,2.05.66h2.78c.91,0,1.59-.22,2.03-.66.44-.44.66-1.13.66-2.07v-12.32c0-1.02-.21-1.74-.62-2.15s-1.01-.62-1.79-.62Z"/></g><g><path class="cls-1" d="m39.25,217.47c-1.37-.62-2.41-1.77-3.11-3.45-.7-1.68-1.05-4.11-1.05-7.29s.35-5.61,1.05-7.31c.7-1.69,1.74-2.85,3.11-3.47,1.37-.62,3.2-.93,5.5-.93s4.12.31,5.5.93,2.41,1.78,3.11,3.47c.7,1.69,1.05,4.13,1.05,7.31s-.35,5.61-1.05,7.29c-.7,1.68-1.74,2.83-3.11,3.45s-3.2.93-5.5.93-4.12-.31-5.5-.93Zm8.16-4.41c.6-.36,1.02-1.03,1.27-2,.25-.97.37-2.42.37-4.33s-.12-3.46-.37-4.43c-.25-.97-.67-1.62-1.25-1.97-.59-.34-1.48-.51-2.68-.51s-2.06.17-2.65.51c-.59.34-1.01,1-1.27,1.97-.26.97-.39,2.45-.39,4.43s.12,3.37.37,4.33c.25.97.67,1.64,1.27,2s1.49.54,2.66.54,2.06-.18,2.66-.54Z"/><path class="cls-1" d="m57.47,200.75c0-1.96.54-3.37,1.63-4.23,1.08-.86,2.38-1.28,3.89-1.28h.8c3.98.06,7.06.22,9.23.46v4.49h-8.51c-.54,0-.95.15-1.24.43-.29.29-.43.66-.43,1.12v3.22l8.67.28v4.24l-8.67.28v8.45h-5.36v-17.46Z"/><path class="cls-1" d="m86.78,218.18c-1.29-.14-2.44-.35-3.45-.62v-4.24c1.96.19,4.3.28,7.03.28,1.16,0,2.01-.14,2.57-.42s.84-.78.84-1.5v-.59c0-.54-.18-.96-.53-1.25s-.82-.45-1.39-.45h-1.79c-2.37,0-4.14-.52-5.31-1.56s-1.75-2.73-1.75-5.06v-1.08c0-2.23.65-3.89,1.95-4.98s3.21-1.64,5.73-1.64c2.17,0,4.52.29,7.06.87v4.21c-2.87-.19-5-.28-6.41-.28-1.09,0-1.91.15-2.45.45-.54.3-.81.85-.81,1.66v.43c0,1.28.77,1.92,2.32,1.92h2.14c2.04,0,3.61.56,4.69,1.67,1.08,1.12,1.63,2.58,1.63,4.4v1.15c0,1.84-.33,3.26-.98,4.26-.65,1-1.56,1.69-2.74,2.06-1.18.37-2.67.56-4.49.56-1.28,0-2.57-.07-3.85-.22Z"/><path class="cls-1" d="m106.64,200.04h-6.04v-4.8h17.4v4.8h-6.04v18.17h-5.33v-18.17Z"/><path class="cls-1" d="m122.43,216.73c-1.61-1.09-2.42-3.1-2.42-6.01v-15.48h5.36v15.45c0,1.92,1.27,2.88,3.81,2.88s3.78-.96,3.78-2.88v-15.45h5.36v15.48c0,2.91-.8,4.91-2.4,6.01-1.6,1.09-3.84,1.64-6.73,1.64s-5.14-.55-6.75-1.64Z"/><path class="cls-1" d="m141.66,195.24h9.94c3.01,0,5.13,1.01,6.35,3.02s1.83,4.85,1.83,8.5c0,3.92-.67,6.81-2.01,8.67-1.34,1.86-3.4,2.79-6.16,2.79h-9.94v-22.97Zm9.41,18.17c1.24,0,2.11-.53,2.62-1.58s.76-2.75.76-5.08c0-1.84-.13-3.24-.39-4.21-.26-.97-.62-1.63-1.1-1.98-.47-.35-1.1-.53-1.89-.53h-4.06v13.38h4.06Z"/><path class="cls-1" d="m162.86,213.1v-12.35c0-1.96.54-3.37,1.62-4.23,1.08-.86,2.38-1.28,3.89-1.28,3.43.02,6.77.17,10.03.43v4.52h-8.42c-.56,0-.99.13-1.3.4-.31.27-.46.67-.46,1.21v2.54l8.67.31v4.21l-8.67.28v2.42c0,.62.15,1.08.45,1.38.3.3.69.45,1.16.45h8.58v4.49c-2.48.31-5.71.49-9.69.53-3.9,0-5.85-1.76-5.85-5.29Z"/><path class="cls-1" d="m181.57,195.24h4.24l8.79,13.9v-13.9h5.36v22.97h-4.27l-8.79-13.87v13.87h-5.33v-22.97Z"/><path class="cls-1" d="m208.22,200.04h-6.04v-4.8h17.4v4.8h-6.04v18.17h-5.33v-18.17Z"/><path class="cls-1" d="m19.88,256.39c-1.2-.62-2.12-1.78-2.77-3.48s-.98-4.14-.98-7.32.33-5.46,1.01-7.15,1.62-2.86,2.83-3.51c1.22-.65,2.75-.97,4.58-.97,1.57,0,2.98.11,4.24.34,1.26.23,2.3.51,3.13.84v4.15c-1.9-.35-3.97-.53-6.22-.53-1.11,0-1.96.17-2.54.51s-1,1-1.27,1.97c-.27.97-.4,2.44-.4,4.4s.11,3.36.34,4.32c.23.96.64,1.63,1.24,2.01.6.38,1.49.57,2.66.57,2.79,0,4.85-.1,6.19-.31v4.15c-1.75.64-4.22.96-7.4.96-1.9,0-3.45-.31-4.64-.93Z"/><path class="cls-1" d="m38.2,256.39c-1.37-.62-2.41-1.77-3.11-3.45-.7-1.68-1.05-4.11-1.05-7.29s.35-5.61,1.05-7.31c.7-1.69,1.74-2.85,3.11-3.47s3.21-.93,5.5-.93,4.12.31,5.5.93c1.37.62,2.41,1.78,3.11,3.47s1.05,4.13,1.05,7.31-.35,5.61-1.05,7.29-1.74,2.83-3.11,3.45c-1.37.62-3.21.93-5.5.93s-4.12-.31-5.5-.93Zm8.16-4.41c.6-.36,1.02-1.03,1.27-2,.25-.97.37-2.42.37-4.33s-.12-3.46-.37-4.43c-.25-.97-.67-1.62-1.25-1.97-.59-.34-1.48-.51-2.68-.51s-2.06.17-2.65.51c-.59.34-1.01,1-1.27,1.97-.26.97-.39,2.45-.39,4.43s.12,3.37.37,4.33c.25.97.67,1.64,1.27,2s1.49.54,2.66.54,2.06-.18,2.66-.54Z"/><path class="cls-1" d="m56.42,234.16h9.94c3.01,0,5.13,1.01,6.35,3.02s1.83,4.85,1.83,8.5c0,3.92-.67,6.81-2.01,8.67-1.34,1.86-3.4,2.79-6.16,2.79h-9.94v-22.97Zm9.41,18.17c1.24,0,2.11-.53,2.62-1.58s.76-2.75.76-5.08c0-1.84-.13-3.24-.39-4.21-.26-.97-.62-1.63-1.1-1.98-.47-.35-1.1-.53-1.89-.53h-4.06v13.38h4.06Z"/><path class="cls-1" d="m77.63,252.02v-12.35c0-1.96.54-3.37,1.62-4.23,1.08-.86,2.38-1.28,3.89-1.28,3.43.02,6.77.17,10.03.43v4.52h-8.42c-.56,0-.99.13-1.3.4-.31.27-.46.67-.46,1.21v2.54l8.67.31v4.21l-8.67.28v2.42c0,.62.15,1.08.45,1.38.3.3.69.45,1.16.45h8.58v4.49c-2.48.31-5.71.49-9.69.53-3.9,0-5.85-1.76-5.85-5.29Z"/><path class="cls-1" d="m102.58,234.16h5.54l3.25,15.02,3.84-15.02h4.83l3.81,15.02,3.25-15.02h5.54l-5.39,22.97h-5.39l-4.24-15.05-4.27,15.05h-5.39l-5.39-22.97Z"/><path class="cls-1" d="m134.78,234.16h9.66c2.13,0,3.78.56,4.97,1.69,1.19,1.13,1.78,3.08,1.78,5.87,0,1.86-.29,3.25-.88,4.18-.59.93-1.41,1.66-2.46,2.2l4.12,9.04h-5.45l-3.44-8.17c-.58-.02-1.56-.03-2.94-.03v8.21h-5.36v-22.97Zm8.7,10.53c.78,0,1.37-.22,1.76-.67.39-.44.59-1.2.59-2.28s-.2-1.78-.59-2.18c-.39-.4-.98-.6-1.76-.6h-3.34v5.73h3.34Z"/><path class="cls-1" d="m154.41,234.16h5.36v22.97h-5.36v-22.97Z"/><path class="cls-1" d="m168.13,238.96h-6.04v-4.8h17.4v4.8h-6.04v18.17h-5.33v-18.17Z"/><path class="cls-1" d="m186.83,238.96h-6.04v-4.8h17.4v4.8h-6.04v18.17h-5.33v-18.17Z"/><path class="cls-1" d="m200.2,252.02v-12.35c0-1.96.54-3.37,1.63-4.23,1.08-.86,2.38-1.28,3.89-1.28,3.43.02,6.77.17,10.03.43v4.52h-8.42c-.56,0-.99.13-1.3.4s-.46.67-.46,1.21v2.54l8.67.31v4.21l-8.67.28v2.42c0,.62.15,1.08.45,1.38.3.3.69.45,1.16.45h8.58v4.49c-2.48.31-5.71.49-9.69.53-3.9,0-5.85-1.76-5.85-5.29Z"/><path class="cls-1" d="m218.91,234.16h4.24l8.79,13.9v-13.9h5.36v22.97h-4.27l-8.79-13.87v13.87h-5.33v-22.97Z"/></g><g><path class="cls-1" d="m233.33,144.09H20.1V13.41c0-7.39,6.02-13.41,13.41-13.41h186.42c7.39,0,13.41,6.02,13.41,13.41v130.68Zm-206.17-7.07h199.1V13.41c0-3.5-2.85-6.34-6.34-6.34H33.51c-3.5,0-6.34,2.85-6.34,6.34v123.62Z"/><path class="cls-1" d="m249.9,153.44H3.53c-1.95,0-3.53-1.58-3.53-3.53s1.58-3.53,3.53-3.53h246.37c1.95,0,3.53,1.58,3.53,3.53s-1.58,3.53-3.53,3.53Z"/></g></g></g></svg>