<?xml version="1.0" encoding="UTF-8"?><svg id="Layer_2" xmlns="http://www.w3.org/2000/svg" viewBox="0 0 175.77 207.38"><defs><style>.cls-1{fill:#fff;}.cls-2{fill:#323232;}</style></defs><g id="Layer_1-2"><g><path class="cls-2" d="m9.04,177.41l-2.85-2.51,9.44-10.71,6.33,5.58-2.05,2.32-3.48-3.07-1.8,2.04,3.21,2.83-2.05,2.32-3.21-2.83-3.54,4.02Z"/><path class="cls-2" d="m15.77,182.95l8.45-11.51,3.12,2.29-8.45,11.51-3.12-2.3Z"/><path class="cls-2" d="m38.16,188.66c-1.2,2.08-2.62,3.37-4.26,3.87-1.64.5-3.45.18-5.42-.95-1.94-1.12-3.12-2.51-3.53-4.2-.41-1.68-.02-3.57,1.18-5.65,1.18-2.06,2.6-3.34,4.26-3.83s3.46-.18,5.43.95c1.97,1.13,3.15,2.53,3.55,4.19s0,3.54-1.2,5.63Zm-8.52-4.89c-1.38,2.39-1.23,4.07.44,5.02.85.49,1.64.56,2.39.21.74-.35,1.47-1.14,2.17-2.37.71-1.24,1.03-2.27.95-3.1-.08-.83-.53-1.48-1.35-1.95-1.68-.96-3.21-.24-4.6,2.18Z"/><path class="cls-2" d="m54.78,190.71c-.87-.29-1.67-.17-2.4.38-.73.55-1.3,1.45-1.72,2.7-.88,2.6-.32,4.24,1.66,4.9.6.2,1.21.31,1.82.34s1.25.01,1.9-.03l-1.04,3.09c-1.3.12-2.66-.06-4.08-.54-2.04-.69-3.41-1.81-4.1-3.36-.69-1.55-.66-3.45.09-5.69.47-1.4,1.15-2.54,2.03-3.43.88-.88,1.92-1.45,3.1-1.68,1.18-.24,2.44-.13,3.78.32,1.46.49,2.75,1.28,3.87,2.36l-2.09,2.5c-.42-.4-.85-.77-1.3-1.1-.45-.33-.96-.59-1.53-.78Z"/><path class="cls-2" d="m71.66,206.24l-3.81-.72,1.08-5.72-4.4-.83-1.08,5.72-3.81-.72,2.65-14.03,3.81.72-.98,5.2,4.41.83.98-5.2,3.81.72-2.65,14.03Z"/><path class="cls-2" d="m85.71,207.2l-.59-2.7-4.63-.2-.84,2.64-4.23-.18,5.27-14.12,5.14.22,4.1,14.53-4.21-.18Zm-1.25-5.9l-.51-2.37c-.12-.53-.27-1.21-.43-2.04-.17-.83-.28-1.43-.33-1.79-.07.33-.21.87-.42,1.62-.21.75-.65,2.24-1.34,4.45l3.03.13Z"/><path class="cls-2" d="m93.56,207.12l-1.17-14.23,3.84-.32.92,11.12,5.48-.45.26,3.11-9.32.77Z"/><path class="cls-2" d="m107.09,205.72l-2.79-14,3.78-.75,2.18,10.95,5.39-1.07.61,3.05-9.18,1.83Z"/><path class="cls-2" d="m128.46,200.19l-8.08,2.57-4.34-13.6,8.08-2.57.94,2.95-4.4,1.4.68,2.14,4.08-1.3.94,2.95-4.08,1.3.82,2.57,4.4-1.4.96,3Z"/><path class="cls-2" d="m145.17,192.77l-4.57,2.17-9.03-6.85-.08.04c.79,1.38,1.37,2.44,1.72,3.19l2.76,5.81-3.09,1.47-6.13-12.89,4.55-2.16,8.95,6.73.05-.03c-.7-1.26-1.24-2.29-1.61-3.07l-2.77-5.83,3.1-1.48,6.13,12.89Z"/><path class="cls-2" d="m149.87,179.9l5.1-3.45,4.31,6.37c-1.07,1.41-2.43,2.68-4.09,3.8-1.82,1.23-3.59,1.66-5.3,1.27s-3.23-1.55-4.55-3.51c-1.29-1.91-1.75-3.76-1.38-5.56.37-1.8,1.54-3.36,3.5-4.69.74-.5,1.49-.91,2.25-1.22.75-.31,1.45-.52,2.09-.63l.69,3.19c-1.14.16-2.21.58-3.23,1.27-.93.63-1.45,1.42-1.55,2.37-.1.95.23,1.99,1,3.12.75,1.11,1.55,1.79,2.4,2.06.85.27,1.71.11,2.58-.48.47-.32.88-.66,1.22-1.02l-1.25-1.85-2.11,1.43-1.67-2.47Z"/><path class="cls-2" d="m169.9,174.63l-6.37,5.59-9.41-10.73,6.37-5.59,2.04,2.33-3.47,3.04,1.48,1.69,3.22-2.82,2.04,2.33-3.22,2.82,1.78,2.03,3.47-3.04,2.07,2.36Z"/></g><circle class="cls-2" cx="87.88" cy="87.88" r="87.88"/><polygon class="cls-1" points="87.88 37.03 104.03 69.74 140.13 74.99 114.01 100.45 120.17 136.4 87.88 119.43 55.6 136.4 61.76 100.45 35.64 74.99 71.74 69.74 87.88 37.03"/></g></svg>