<?xml version="1.0" encoding="UTF-8"?>
<svg id="Layer_1" data-name="Layer 1" xmlns="http://www.w3.org/2000/svg" viewBox="0 0 80 80">
  <defs>
    <style>
      .cls-1 {
        fill: #ed3742;
      }

      .cls-2 {
        fill: #fff;
      }
    </style>
  </defs>
  <circle class="cls-1" cx="40" cy="40" r="39.53"/>
  <path class="cls-2" d="M52.06,38.81c2.07,2.13,3.1,4.89,3.1,8.31v1.88c0,4.59-1.04,7.85-3.13,9.76-2.09,1.92-5.22,2.99-9.39,3.22v4.89h-6.15v-4.84c-3.76-.23-7.25-.76-10.47-1.59v-8.76c3.79,.34,8.14,.51,13.03,.51,1.94,0,3.36-.22,4.27-.65,.91-.44,1.37-1.19,1.37-2.25v-.68c0-.8-.29-1.41-.85-1.85-.57-.44-1.27-.65-2.11-.65h-3.02c-4.51,0-7.88-1-10.1-2.99-2.22-1.99-3.33-5.21-3.33-9.65v-1.88c0-3.64,.95-6.49,2.85-8.54,1.9-2.05,4.69-3.3,8.37-3.76v-4.44h6.15v4.33c3.03,.15,6.51,.68,10.41,1.59v8.76c-4.25-.34-8.19-.51-11.84-.51-1.82,0-3.19,.22-4.1,.65-.91,.44-1.36,1.26-1.36,2.48v.57c0,1.93,1.23,2.9,3.7,2.9h3.76c3.83,0,6.78,1.06,8.85,3.19Z"/>
</svg>