<?xml version="1.0" encoding="UTF-8"?>
<svg id="Layer_1" data-name="Layer 1" xmlns="http://www.w3.org/2000/svg" viewBox="0 0 80 80">
  <defs>
    <style>
      .cls-1 {
        fill: #ed3742;
      }
    </style>
  </defs>
  <path class="cls-1" d="M36.78,54.26c.61-.61,.61-1.6,0-2.21-.61-.61-1.6-.61-2.21,0-.61,.61-.61,1.6,0,2.21,.61,.61,1.6,.61,2.21,0Z"/>
  <path class="cls-1" d="M29.38,17.18c0,9.47,7.71,17.18,17.18,17.18s17.18-7.71,17.18-17.18S56.04,0,46.56,0,29.38,7.71,29.38,17.18Zm31.24,0c0,7.75-6.31,14.06-14.06,14.06s-14.06-6.31-14.06-14.06,6.31-14.06,14.06-14.06,14.06,6.31,14.06,14.06Z"/>
  <path class="cls-1" d="M18,79.54c.61,.61,1.59,.62,2.2,.01l7.57-7.46c1.29-1.29,1.68-3.19,1.11-4.85l1.63-1.57c.88-.85,2.03-1.31,3.25-1.31h20.77c3.68,0,7.17-1.41,9.81-3.98,.11-.11-.82,.99,14.17-16.92,2.22-2.63,1.89-6.58-.74-8.81-2.62-2.21-6.54-1.89-8.77,.7l-9.22,9.47c-1.16-1.43-2.94-2.33-4.86-2.33h-17.42c-2.48-1.04-5.11-1.56-7.82-1.56-7.52,0-14.09,3.47-17.61,9.99-1.48-.28-3.05,.17-4.18,1.29L.47,59.66c-.61,.61-.61,1.59,0,2.2l17.54,17.67Zm11.69-35.49c2.39,0,4.71,.48,6.88,1.43,.2,.09,.41,.13,.63,.13h17.74c1.69,0,3.12,1.38,3.12,3.12s-1.4,3.12-3.12,3.12h-12.74c-.86,0-1.56,.7-1.56,1.56s.7,1.56,1.56,1.56h12.74c3.45,0,6.25-2.8,6.25-6.25,0-.27-.02-.55-.05-.82,8.92-9.17,10.17-10.45,10.23-10.52,1.11-1.31,3.09-1.48,4.4-.37,1.32,1.11,1.48,3.09,.37,4.41l-14.01,16.75c-2.05,1.96-4.73,3.05-7.57,3.05h-20.77c-2.03,0-3.96,.78-5.42,2.19l-1.33,1.28-12.24-12.24c2.86-5.37,8.23-8.42,14.9-8.42Zm-19.58,10.37c.52-.52,1.31-.61,1.93-.22,.27,.16-.51-.54,13.53,13.47,.62,.62,.59,1.62,0,2.2l-6.46,6.36L3.78,60.77l6.33-6.35Z"/>
  <path class="cls-1" d="M44.69,7.81v1.83c-1.82,.64-3.12,2.38-3.12,4.42,0,2.58,2.1,4.69,4.69,4.69,.86,0,1.56,.7,1.56,1.56s-.7,1.56-1.56,1.56c-.67,0-1.39-.42-2.03-1.18-.56-.66-1.54-.75-2.2-.19-.66,.56-.75,1.54-.19,2.2,.83,.99,1.82,1.69,2.86,2.03v1.82c0,.86,.7,1.56,1.56,1.56s1.56-.7,1.56-1.56v-1.83c1.82-.65,3.12-2.38,3.12-4.42,0-2.58-2.1-4.69-4.69-4.69-.86,0-1.56-.7-1.56-1.56s.7-1.56,1.56-1.56c.55,0,1.14,.28,1.69,.82,.62,.6,1.61,.58,2.21-.04,.6-.62,.58-1.61-.04-2.21-.79-.77-1.59-1.2-2.3-1.44v-1.82c0-.86-.7-1.56-1.56-1.56s-1.56,.7-1.56,1.56Z"/>
</svg>