<?xml version="1.0" encoding="UTF-8"?><svg id="Layer_2" xmlns="http://www.w3.org/2000/svg" viewBox="0 0 206.35 207.24"><defs><style>.cls-1{fill:#fff;}.cls-2{fill:#323232;}</style></defs><g id="Layer_1-2"><g><path class="cls-2" d="m11.27,153.82c-2.03,1.29-3.88,1.77-5.57,1.45s-3.14-1.45-4.36-3.36c-1.2-1.89-1.59-3.68-1.17-5.36.42-1.68,1.64-3.17,3.67-4.46,2.01-1.28,3.86-1.75,5.55-1.42,1.7.33,3.15,1.45,4.37,3.36,1.22,1.92,1.62,3.7,1.2,5.36s-1.65,3.13-3.68,4.42Zm-5.27-8.29c-2.33,1.48-2.98,3.03-1.95,4.65.52.82,1.2,1.26,2.01,1.29.82.04,1.83-.32,3.02-1.09,1.2-.76,1.96-1.53,2.28-2.3.32-.77.22-1.55-.29-2.36-1.04-1.63-2.73-1.7-5.08-.21Z"/><path class="cls-2" d="m17.2,171.81l-3.34-3.8,4.1-10.56-.06-.07c-1.11,1.14-1.97,1.98-2.6,2.53l-4.83,4.26-2.26-2.56,10.71-9.44,3.33,3.78-4.01,10.46.04.04c1.02-1.02,1.86-1.82,2.51-2.39l4.84-4.27,2.27,2.58-10.71,9.44Z"/><path class="cls-2" d="m21.08,175.41l9.33-10.81,2.92,2.52-7.3,8.45,4.16,3.59-2.04,2.36-7.08-6.11Z"/><path class="cls-2" d="m31.43,183.91l8.3-11.62,3.16,2.25-8.3,11.62-3.16-2.25Z"/><path class="cls-2" d="m50.67,195.7l-4.43-2.44.29-11.33-.08-.04c-.66,1.45-1.19,2.53-1.59,3.26l-3.11,5.64-2.99-1.65,6.9-12.5,4.41,2.43-.24,11.2.05.03c.62-1.3,1.13-2.34,1.56-3.1l3.12-5.65,3.01,1.66-6.9,12.5Z"/><path class="cls-2" d="m63.41,200.81l-7.9-3.06,5.16-13.31,7.9,3.06-1.12,2.89-4.31-1.67-.81,2.09,3.99,1.54-1.12,2.89-3.99-1.54-.97,2.51,4.31,1.67-1.14,2.93Z"/><path class="cls-2" d="m82.84,205.65l-.19-2.76-4.56-.87-1.21,2.49-4.16-.79,7.25-13.21,5.06.96,1.96,14.96-4.14-.79Zm-.39-6.02l-.17-2.42c-.04-.54-.09-1.23-.14-2.08-.05-.85-.07-1.46-.07-1.82-.12.32-.34.83-.65,1.55-.31.71-.97,2.12-1.97,4.21l2.98.57Z"/><path class="cls-2" d="m101.57,197.58c-.09,1.59-.63,2.79-1.62,3.61-.99.81-2.35,1.17-4.08,1.08l-1.08-.06-.27,4.73-3.85-.22.8-14.25,4.93.28c1.8.1,3.13.57,3.99,1.41.86.84,1.25,1.98,1.17,3.43Zm-6.6,1.49l.7.04c.58.03,1.05-.11,1.41-.41.36-.31.56-.75.59-1.32.05-.96-.45-1.47-1.52-1.53l-.99-.06-.18,3.28Z"/><path class="cls-2" d="m115.04,196.85c.1,1.59-.29,2.85-1.17,3.78-.88.93-2.19,1.45-3.92,1.56l-1.08.07.31,4.73-3.85.25-.93-14.25,4.93-.32c1.8-.12,3.18.19,4.13.92.95.73,1.48,1.81,1.57,3.26Zm-6.37,2.27l.7-.04c.58-.04,1.03-.23,1.35-.58.32-.35.46-.81.42-1.38-.06-.96-.63-1.41-1.69-1.34l-.99.07.21,3.27Z"/><path class="cls-2" d="m119.94,205.96l-2.6-14.04,3.79-.7,2.04,10.97,5.41-1,.57,3.06-9.2,1.71Z"/><path class="cls-2" d="m133.09,203.17l-3.91-13.73,3.73-1.06,3.91,13.73-3.73,1.06Z"/><path class="cls-2" d="m143.31,187.79c-.85.34-1.38.95-1.58,1.84s-.06,1.95.43,3.18c1.01,2.55,2.49,3.45,4.43,2.68.59-.23,1.12-.54,1.61-.92.49-.38.96-.8,1.43-1.25l1.2,3.03c-.91.93-2.07,1.67-3.47,2.22-2,.79-3.77.82-5.3.08-1.53-.74-2.73-2.21-3.6-4.4-.54-1.38-.76-2.68-.66-3.93s.53-2.34,1.28-3.29c.75-.95,1.78-1.68,3.09-2.2,1.43-.57,2.93-.8,4.48-.69l.02,3.26c-.58-.04-1.15-.04-1.7,0s-1.11.17-1.67.39Z"/><path class="cls-2" d="m163.15,190.53l-1.92-1.99-4.05,2.27.68,2.69-3.7,2.07-2.95-14.78,4.49-2.52,11.12,10.2-3.68,2.06Zm-4.17-4.36l-1.68-1.74c-.38-.38-.86-.89-1.44-1.51-.58-.62-.99-1.07-1.22-1.35.11.32.28.85.5,1.6.22.75.62,2.25,1.2,4.49l2.65-1.48Z"/><path class="cls-2" d="m174.86,182.57l-3.1,2.3-6.63-8.93-2.8,2.08-1.88-2.53,8.69-6.45,1.88,2.53-2.79,2.07,6.63,8.93Z"/><path class="cls-2" d="m180.52,177.94l-9.54-10.62,2.88-2.59,9.54,10.62-2.88,2.59Z"/><path class="cls-2" d="m190.68,157.19c1.79,1.6,2.77,3.25,2.92,4.96s-.53,3.42-2.04,5.11c-1.49,1.67-3.1,2.54-4.83,2.6-1.73.06-3.5-.71-5.29-2.31-1.78-1.58-2.74-3.23-2.88-4.95s.53-3.43,2.04-5.12c1.51-1.7,3.12-2.57,4.83-2.62s3.46.73,5.26,2.33Zm-6.53,7.34c2.06,1.84,3.73,2.04,5.01.6.65-.73.88-1.49.69-2.29-.19-.8-.81-1.67-1.87-2.61-1.06-.95-2.01-1.47-2.84-1.56-.83-.1-1.56.21-2.19.92-1.29,1.44-.89,3.09,1.2,4.94Z"/><path class="cls-2" d="m206.35,146.58l-2.74,4.26-11.28-1.05-.05.07c1.4.75,2.45,1.35,3.15,1.8l5.41,3.48-1.85,2.88-12.01-7.72,2.72-4.24,11.16.99.03-.05c-1.26-.7-2.26-1.29-2.99-1.76l-5.43-3.49,1.86-2.89,12.01,7.72Z"/></g><circle class="cls-2" cx="102.25" cy="87.88" r="87.88"/><path class="cls-1" d="m160.01,47.85H44.41s-3.37-.19-3.74,3.18v64.88s-.19,3.74,2.99,3.55h43.43s.35,11,.35,11l-10.51-.07v4.21h50.29v-4.54h-11.21l-.25-10.33,44.65.45s3.41-1.1,3.41-5.23v-63.3s-.45-3.89-3.82-3.83Zm-1.44,62.28H45.93v-58.48h112.64v58.48Z"/></g></svg>