<?xml version="1.0" encoding="UTF-8"?>
<svg id="Layer_1" data-name="Layer 1" xmlns="http://www.w3.org/2000/svg" viewBox="0 0 80 80">
  <defs>
    <style>
      .cls-1 {
        fill: #ed3742;
      }

      .cls-2 {
        fill: #fff;
      }
    </style>
  </defs>
  <circle class="cls-1" cx="40" cy="40" r="39.53"/>
  <path class="cls-2" d="M32.84,35.54h5.95c1.69,0,3-.3,3.92-.91,.92-.6,1.38-1.68,1.38-3.23v-1.09c0-3.05-2.32-4.57-6.96-4.57-1.74,0-3.48,.18-5.22,.54s-3.68,.91-5.8,1.63v-10.44c4.4-2.9,9.52-4.35,15.38-4.35,3.43,0,6.41,.64,8.92,1.92,2.51,1.28,4.44,3.05,5.77,5.29,1.33,2.25,1.99,4.8,1.99,7.65v3.7c0,4.69-1.25,8.24-3.73,10.66-2.49,2.42-6.2,3.63-11.13,3.63v5.8h-10.44v-16.25Zm-.18,30.86c-.32-.31-.47-.71-.47-1.2v-8.49c0-.58,.15-1.03,.44-1.34,.29-.31,.73-.47,1.31-.47h8.2c1.21,0,1.81,.61,1.81,1.81v8.49c0,1.11-.61,1.67-1.81,1.67h-8.2c-.53,0-.96-.16-1.27-.47Z"/>
</svg>