<?xml version="1.0" encoding="UTF-8"?><svg id="Layer_2" xmlns="http://www.w3.org/2000/svg" viewBox="0 0 180.6 207.29"><defs><style>.cls-1{fill:#323232;}.cls-2{fill:#fff;fill-rule:evenodd;}</style></defs><g id="Layer_1-2"><g><path class="cls-1" d="m9.48,170.05c-.65.6-1.38.98-2.18,1.12-.81.14-1.64.03-2.5-.33-.86-.36-1.67-.96-2.45-1.79-.65-.7-1.14-1.32-1.49-1.88-.34-.56-.63-1.21-.86-1.95l2.51-2.35c.23.79.53,1.55.92,2.28.39.72.81,1.33,1.26,1.81.39.42.75.66,1.08.72.33.06.61-.02.83-.23.14-.13.23-.29.27-.47.03-.18.02-.41-.03-.68s-.26-.95-.62-2.02c-.33-.97-.5-1.76-.53-2.37-.03-.61.07-1.18.29-1.69.22-.51.59-1.01,1.1-1.49.96-.9,2.04-1.25,3.23-1.05s2.36.91,3.5,2.13c1.01,1.08,1.79,2.41,2.34,4l-2.98,1.17c-.46-1.39-1.03-2.44-1.69-3.15-.34-.37-.66-.57-.94-.62s-.52.02-.71.2c-.2.19-.29.47-.25.83.04.36.28,1.21.72,2.55.44,1.28.58,2.31.45,3.09-.14.78-.56,1.5-1.26,2.16Z"/><path class="cls-1" d="m21.54,171.37c-.7-.59-1.49-.77-2.37-.52-.88.24-1.74.87-2.6,1.88-1.77,2.1-1.86,3.82-.26,5.17.48.41,1.01.73,1.57.98.57.25,1.16.47,1.78.67l-2.1,2.49c-1.25-.37-2.45-1.03-3.6-2-1.65-1.39-2.51-2.93-2.58-4.63-.07-1.7.65-3.45,2.18-5.25.95-1.13,2-1.94,3.15-2.44s2.31-.64,3.5-.43c1.19.21,2.32.78,3.4,1.69,1.18.99,2.09,2.2,2.73,3.62l-2.86,1.56c-.24-.53-.51-1.03-.81-1.5-.29-.47-.67-.9-1.13-1.29Z"/><path class="cls-1" d="m31.48,192.02l-3.28-2.07,3.11-4.92-3.79-2.4-3.11,4.92-3.28-2.07,7.64-12.06,3.28,2.07-2.83,4.47,3.79,2.4,2.83-4.47,3.28,2.07-7.64,12.06Z"/><path class="cls-1" d="m43.82,197.99l-7.68-3.58,6.03-12.94,7.68,3.58-1.31,2.81-4.19-1.95-.95,2.04,3.88,1.81-1.31,2.81-3.88-1.81-1.14,2.44,4.19,1.95-1.33,2.85Z"/><path class="cls-1" d="m61.85,196.35c-.73,2.27-1.91,3.82-3.56,4.64-1.64.83-3.6.88-5.86.15l-4.4-1.41,4.36-13.6,4.71,1.51c2.18.7,3.69,1.8,4.52,3.29.83,1.5.91,3.3.23,5.41Zm-3.85-1.09c.4-1.25.45-2.25.15-3.01-.3-.76-.95-1.3-1.96-1.62l-1.07-.34-2.44,7.62.82.26c1.12.36,2.04.3,2.77-.19.73-.48,1.31-1.39,1.73-2.72Z"/><path class="cls-1" d="m78.59,192.47l-1.42,8.48c-.31,1.84-1.07,3.18-2.28,4.02-1.21.84-2.8,1.09-4.77.76-1.92-.32-3.31-1.06-4.18-2.21s-1.15-2.65-.84-4.5l1.43-8.56,3.82.64-1.38,8.26c-.17,1-.1,1.75.2,2.26.3.51.81.83,1.53.95.78.13,1.38,0,1.8-.39.42-.39.72-1.09.89-2.1l1.38-8.24,3.8.64Z"/><path class="cls-1" d="m81.37,206.95l.52-14.27,3.85.14-.4,11.15,5.49.2-.11,3.11-9.35-.34Z"/><path class="cls-1" d="m103.4,206.53l-8.45.62-1.04-14.24,8.45-.62.23,3.09-4.61.34.16,2.24,4.27-.31.23,3.09-4.27.31.2,2.69,4.61-.34.23,3.13Z"/><path class="cls-1" d="m123.02,202.6l-1.35-2.41-4.49,1.16-.03,2.77-4.1,1.06.91-15.05,4.98-1.29,8.16,12.69-4.08,1.06Zm-2.92-5.28l-1.18-2.11c-.27-.47-.61-1.08-1.01-1.83-.41-.75-.69-1.29-.84-1.62.03.34.05.89.08,1.67.02.78.03,2.33.02,4.65l2.94-.76Z"/><path class="cls-1" d="m137.68,184.83c-.83.39-1.31,1.04-1.46,1.94-.14.9.07,1.95.64,3.14,1.18,2.48,2.71,3.27,4.6,2.37.57-.27,1.08-.61,1.54-1.03.46-.41.91-.86,1.34-1.34l1.4,2.94c-.85.99-1.95,1.81-3.31,2.45-1.95.93-3.71,1.07-5.28.44s-2.87-2.02-3.89-4.15c-.63-1.33-.94-2.62-.92-3.88.02-1.25.37-2.37,1.06-3.37.68-.99,1.66-1.79,2.94-2.4,1.39-.66,2.87-.99,4.43-.99l.24,3.25c-.58,0-1.15.04-1.7.12s-1.1.24-1.64.5Z"/><path class="cls-1" d="m157.68,186.21l-2.05-1.86-3.88,2.54.86,2.63-3.55,2.32-3.93-14.55,4.31-2.81,11.78,9.43-3.53,2.3Zm-4.45-4.07l-1.8-1.63c-.4-.36-.92-.83-1.54-1.41-.62-.58-1.06-1-1.31-1.27.13.31.33.83.61,1.56s.77,2.2,1.5,4.4l2.54-1.66Z"/><path class="cls-1" d="m164,181.59l-9.25-10.88,2.94-2.5,7.23,8.51,4.19-3.56,2.02,2.37-7.13,6.06Z"/><path class="cls-1" d="m174.21,172.53l-10.42-9.76,2.64-2.81,8.15,7.63,3.76-4.01,2.27,2.13-6.4,6.83Z"/></g><circle class="cls-1" cx="90.04" cy="87.88" r="87.88"/><path class="cls-2" d="m131.98,110.19c.14,1.39.76,2.34-.29,3.35l-11.97,11.92c-.57.62-1.24,1.1-2.15,1.53-.86.43-1.72.67-2.54.82-.1,0-.24,0-.57.05-.29.05-.67.05-1.15.05-1.15,0-3.02-.19-5.55-.57-2.58-.43-5.7-1.39-9.38-2.92-3.69-1.53-7.9-3.83-12.59-6.89-4.69-3.06-9.72-7.27-14.98-12.63-4.21-4.17-7.71-8.14-10.48-11.92-2.78-3.78-4.98-7.27-6.65-10.48-1.72-3.25-2.97-6.17-3.83-8.76-.81-2.63-1.39-4.88-1.68-6.8-.33-1.87-.43-3.35-.38-4.45.05-1.1.09-1.68.09-1.82.1-.81.38-1.67.81-2.54.43-.91.91-1.58,1.53-2.15,28.57-28.57,30.25,10.29,27.09,13.45l-4.45,4.45c-.1.1-.24.29-.29.57-.1.24-.14.48-.14.67.24,1.24.77,2.73,1.63,4.31.72,1.48,1.82,3.21,3.3,5.31,1.53,2.06,3.68,4.45,6.41,7.18,2.73,2.73,5.12,4.88,7.23,6.41,2.11,1.53,3.88,2.68,5.26,3.4,1.44.72,2.54,1.15,3.26,1.29l1.15.24c.09,0,.29-.05.57-.14.29-.1.48-.19.57-.29,11.68-17.14,28.96-1.06,30.15,7.37h0Z"/></g></svg>