<?xml version="1.0" encoding="UTF-8" standalone="no"?>
<!-- Created with Inkscape (http://www.inkscape.org/) -->

<svg
   version="1.1"
   id="svg2"
   xml:space="preserve"
   width="775.34003"
   height="599.68933"
   viewBox="0 0 775.34003 599.68933"
   sodipodi:docname="Square_Gray.ai"
   xmlns:inkscape="http://www.inkscape.org/namespaces/inkscape"
   xmlns:sodipodi="http://sodipodi.sourceforge.net/DTD/sodipodi-0.dtd"
   xmlns="http://www.w3.org/2000/svg"
   xmlns:svg="http://www.w3.org/2000/svg"><defs
     id="defs6"><clipPath
       clipPathUnits="userSpaceOnUse"
       id="clipPath16"><path
         d="M 0,449.767 H 581.505 V 0 H 0 Z"
         id="path14" /></clipPath><clipPath
       clipPathUnits="userSpaceOnUse"
       id="clipPath72"><path
         d="M 143.563,404.956 H 436.741 V 119.695 H 143.563 Z"
         id="path70" /></clipPath><clipPath
       clipPathUnits="userSpaceOnUse"
       id="clipPath76"><path
         d="m 143.563,119.695 h 293.178 v 285.26 H 143.563 Z"
         id="path74" /></clipPath><clipPath
       clipPathUnits="userSpaceOnUse"
       id="clipPath96"><path
         d="M 143.563,365.135 H 436.741 V 119.695 H 143.563 Z"
         id="path94" /></clipPath><clipPath
       clipPathUnits="userSpaceOnUse"
       id="clipPath100"><path
         d="m 143.563,119.695 h 293.178 v 245.44 H 143.563 Z"
         id="path98" /></clipPath><clipPath
       clipPathUnits="userSpaceOnUse"
       id="clipPath120"><path
         d="M 143.563,404.956 H 436.741 V 119.695 H 143.563 Z"
         id="path118" /></clipPath><clipPath
       clipPathUnits="userSpaceOnUse"
       id="clipPath124"><path
         d="m 143.563,119.695 h 293.178 v 285.26 H 143.563 Z"
         id="path122" /></clipPath><clipPath
       clipPathUnits="userSpaceOnUse"
       id="clipPath144"><path
         d="M 143.563,365.135 H 436.741 V 119.695 H 143.563 Z"
         id="path142" /></clipPath><clipPath
       clipPathUnits="userSpaceOnUse"
       id="clipPath148"><path
         d="m 143.563,119.695 h 293.178 v 245.44 H 143.563 Z"
         id="path146" /></clipPath><clipPath
       clipPathUnits="userSpaceOnUse"
       id="clipPath168"><path
         d="M 218.986,251.226 H 436.741 V 119.601 H 218.986 Z"
         id="path166" /></clipPath><clipPath
       clipPathUnits="userSpaceOnUse"
       id="clipPath172"><path
         d="M 218.986,119.601 H 436.74 V 251.226 H 218.986 Z"
         id="path170" /></clipPath><clipPath
       clipPathUnits="userSpaceOnUse"
       id="clipPath192"><path
         d="M 143.563,251.226 H 361.319 V 119.601 H 143.563 Z"
         id="path190" /></clipPath><clipPath
       clipPathUnits="userSpaceOnUse"
       id="clipPath196"><path
         d="M 143.563,119.601 H 361.319 V 251.226 H 143.563 Z"
         id="path194" /></clipPath></defs><sodipodi:namedview
     id="namedview4"
     pagecolor="#ffffff"
     bordercolor="#666666"
     borderopacity="1.0"
     inkscape:pageshadow="2"
     inkscape:pageopacity="0.0"
     inkscape:pagecheckerboard="0" /><g
     id="g8"
     inkscape:groupmode="layer"
     inkscape:label="Square_Gray"
     transform="matrix(1.3333333,0,0,-1.3333333,0,599.68933)"><g
       id="g10"><g
         id="g12"
         clip-path="url(#clipPath16)"><g
           id="g18"
           transform="translate(333.77,72.376)"><path
             d="m 0,0 c 0.757,4.663 1.519,9.327 2.264,13.992 0.744,4.648 1.49,9.293 2.185,13.946 0.191,1.277 0.631,1.858 2.097,1.832 5.827,-0.096 11.656,-0.061 17.485,-0.024 1.162,0.008 1.802,-0.103 1.955,-1.574 1.801,-17.203 3.692,-34.391 5.555,-51.584 0.073,-0.684 0.023,-1.385 0.16,-2.051 0.245,-1.185 -0.26,-1.445 -1.347,-1.434 -3.857,0.049 -7.718,0.117 -11.571,-0.024 -1.704,-0.065 -1.925,0.735 -2.086,2.088 -0.975,8.073 -2.015,16.139 -3.039,24.203 -0.067,0.548 0.047,1.182 -0.803,1.758 -0.796,-5.147 -1.567,-10.056 -2.315,-14.969 -0.565,-3.72 -1.177,-7.439 -1.618,-11.177 -0.183,-1.552 -0.823,-1.929 -2.31,-1.897 -4.455,0.1 -8.917,0.128 -13.37,-0.011 -1.737,-0.053 -2.096,0.626 -2.33,2.16 -1.317,8.704 -2.757,17.387 -4.66,26.104 -0.466,-3.769 -0.954,-7.539 -1.392,-11.316 -0.58,-5.016 -1.174,-10.035 -1.644,-15.065 -0.132,-1.398 -0.561,-1.904 -2.015,-1.869 -3.769,0.097 -7.545,0.11 -11.312,-0.003 -1.575,-0.047 -1.796,0.505 -1.644,1.9 0.951,8.683 1.802,17.376 2.728,26.058 0.953,8.938 2.01,17.866 2.881,26.817 0.158,1.626 0.709,1.921 2.171,1.903 5.571,-0.076 11.146,-0.128 16.713,0.019 1.853,0.052 2.487,-0.495 2.736,-2.292 C -3.252,18.344 -1.86,9.212 -0.508,0.078 -0.338,0.053 -0.169,0.025 0,0"
             style="fill:#333332;fill-opacity:1;fill-rule:evenodd;stroke:none"
             id="path20" /></g><g
           id="g22"
           transform="translate(129.6157,102.1074)"><path
             d="m 0,0 c -0.191,-0.822 -0.252,-1.339 -0.43,-1.812 -2.535,-6.692 -2.168,-13.213 0.456,-19.881 1.926,-4.899 3.118,-10.085 5.09,-15.133 1.226,6.628 2.46,13.257 3.677,19.888 0.927,5.05 1.836,10.102 2.753,15.154 0.187,1.037 0.355,1.861 1.845,1.824 4.708,-0.113 9.421,-0.04 14.4,-0.04 -1.597,-6.617 -3.141,-13.059 -4.71,-19.494 -2.857,-11.714 -5.767,-23.419 -8.558,-35.149 -0.369,-1.562 -0.967,-2.043 -2.549,-2.003 -4.713,0.106 -9.432,0.088 -14.145,0.006 -1.495,-0.024 -2.22,0.282 -2.63,1.926 -1.254,5.03 -2.77,9.999 -4.312,15.443 -1.266,-2.165 -1.37,-4.191 -1.878,-6.074 -0.82,-3.057 -1.619,-6.126 -2.258,-9.222 -0.308,-1.503 -0.807,-2.137 -2.489,-2.09 -4.799,0.135 -9.603,0.11 -14.402,0.011 -1.475,-0.029 -2.027,0.426 -2.426,1.858 -4.967,17.788 -10.017,35.551 -15.037,53.321 -0.112,0.403 -0.132,0.833 -0.229,1.464 4.974,0 9.845,-0.017 14.716,0.007 1.802,0.009 1.396,-1.557 1.614,-2.432 2.683,-10.698 5.266,-21.426 7.879,-32.141 0.181,-0.741 0.401,-1.47 0.817,-2.973 1.365,7.38 2.598,14.004 3.815,20.631 0.927,5.049 1.835,10.102 2.757,15.153 0.188,1.036 0.361,1.844 1.864,1.804 C -9.662,-0.082 -4.95,0 0,0"
             style="fill:#333332;fill-opacity:1;fill-rule:evenodd;stroke:none"
             id="path24" /></g><g
           id="g26"
           transform="translate(485.8159,74.2842)"><path
             d="m 0,0 c 0,8.456 0.069,16.914 -0.052,25.366 -0.03,2.028 0.505,2.6 2.517,2.505 3.592,-0.171 7.197,-0.115 10.795,-0.017 1.395,0.037 1.69,-0.446 1.687,-1.746 -0.038,-17.741 -0.041,-35.481 0.005,-53.223 0.004,-1.37 -0.415,-1.726 -1.733,-1.697 -3.685,0.082 -7.374,0.121 -11.053,-0.015 -1.67,-0.061 -2.574,0.452 -3.421,1.932 -4.836,8.452 -9.804,16.828 -14.763,25.293 -0.807,-0.694 -0.423,-1.506 -0.428,-2.193 -0.034,-7.625 -0.066,-15.254 0.014,-22.882 0.016,-1.611 -0.319,-2.219 -2.074,-2.153 -3.681,0.145 -7.37,0.092 -11.055,0.02 -1.32,-0.024 -1.958,0.161 -1.952,1.752 0.057,17.742 0.052,35.484 0.005,53.223 -0.003,1.401 0.476,1.708 1.763,1.682 3.599,-0.074 7.204,-0.147 10.798,0.024 1.96,0.09 3.02,-0.518 3.985,-2.269 C -10.221,16.992 -5.318,8.47 -0.474,-0.085 -0.315,-0.057 -0.159,-0.029 0,0"
             style="fill:#333332;fill-opacity:1;fill-rule:evenodd;stroke:none"
             id="path28" /></g><g
           id="g30"
           transform="translate(266.0498,73.4297)"><path
             d="m 0,0 c 0.075,-3.154 0.021,-6.155 0.534,-9.12 0.341,-1.972 0.919,-3.834 2.83,-4.931 5.578,-3.203 11.792,-0.171 12.607,6.173 0.667,5.201 0.667,10.413 0.101,15.624 C 15.332,14.56 12.723,16.61 6.048,15.688 3.407,15.325 1.664,13.986 0.988,11.318 0.03,7.54 0.125,3.683 0,0 m 31.263,-0.018 c 0.273,-4.642 -0.039,-9.252 -1.166,-13.758 -2.328,-9.327 -6.51,-13.175 -15.992,-14.4 -4.933,-0.636 -9.933,-0.569 -14.84,0.367 -6.189,1.178 -10.181,4.952 -12.096,10.914 -2.566,7.992 -2.344,16.205 -1.812,24.42 0.203,3.16 0.799,6.271 1.785,9.295 2.255,6.913 6.799,11.078 14.161,11.982 5.131,0.629 10.257,0.695 15.344,-0.2 7.499,-1.32 11.974,-6.392 13.673,-15.341 0.413,-2.183 0.755,-4.394 0.909,-6.608 0.155,-2.214 0.034,-4.446 0.034,-6.671"
             style="fill:#333332;fill-opacity:1;fill-rule:evenodd;stroke:none"
             id="path32" /></g><g
           id="g34"
           transform="translate(217.1768,58.4326)"><path
             d="m 0,0 c 3.339,0 6.682,-0.1 10.015,0.032 2.91,0.117 3.611,0.989 3.599,3.823 C 13.6,6.688 12.9,7.468 9.949,7.597 7.554,7.7 5.147,7.646 2.748,7.646 c -9.14,0.011 -14.287,4.521 -15.17,13.563 -0.3,3.06 -0.345,6.179 -0.12,9.243 0.528,7.164 4.789,12.012 11.915,13.106 8.542,1.311 17.075,0.984 25.461,-1.418 1.446,-0.416 2.051,-1.052 1.96,-2.643 -0.151,-2.65 -0.128,-5.32 -0.009,-7.972 C 26.854,30.02 26.356,29.62 24.913,29.781 18.854,30.448 12.765,30.393 6.682,30.37 3.259,30.353 2.559,29.759 2.484,26.972 c -0.089,-3.328 0.713,-4.204 4.19,-4.35 2.227,-0.093 4.459,-0.043 6.687,-0.046 8.855,0 13.623,-3.998 15.094,-12.801 0.724,-4.354 0.571,-8.718 -0.502,-13.011 -1.446,-5.781 -5.221,-9.497 -11.073,-9.913 -8.262,-0.592 -16.596,-1.015 -24.784,1.22 -2.287,0.623 -3.235,1.58 -2.968,4.036 0.259,2.372 0.117,4.799 0.031,7.195 -0.047,1.278 0.341,1.57 1.61,1.453 C -6.166,0.463 -3.078,0.359 -0.002,0.178 0,0.121 0,0.061 0,0"
             style="fill:#333332;fill-opacity:1;fill-rule:evenodd;stroke:none"
             id="path36" /></g><g
           id="g38"
           transform="translate(57.8462,68.1401)"><path
             d="M 0,0 C 2.597,0 4.897,0.032 7.193,-0.014 8.174,-0.032 8.625,0.192 8.32,1.278 7.108,5.61 5.931,9.953 4.604,14.797 3.004,9.654 1.565,5.037 0,0 m 30.486,-22.64 c -4.893,0 -9.517,0.032 -14.14,-0.026 -1.186,-0.013 -1.6,0.471 -1.913,1.542 -0.669,2.292 -1.617,4.503 -2.247,6.803 -0.346,1.264 -0.96,1.58 -2.167,1.563 -3.941,-0.061 -7.883,-0.078 -11.824,0.007 -1.27,0.03 -1.827,-0.406 -2.163,-1.595 -0.576,-2.054 -1.42,-4.033 -1.951,-6.094 -0.42,-1.616 -1.032,-2.347 -2.917,-2.265 -4.337,0.193 -8.69,0.061 -13.337,0.061 2.175,6.949 4.268,13.616 6.355,20.287 3.594,11.491 7.221,22.978 10.733,34.496 0.435,1.427 0.993,1.886 2.45,1.861 4.711,-0.089 9.426,-0.074 14.137,-0.006 1.267,0.019 1.962,-0.226 2.37,-1.588 5.465,-18.242 10.996,-36.468 16.614,-55.046"
             style="fill:#333332;fill-opacity:1;fill-rule:evenodd;stroke:none"
             id="path40" /></g><g
           id="g42"
           transform="translate(371.0317,73.5151)"><path
             d="m 0,0 c 0,5.229 -0.006,10.457 0,15.685 0.01,7.775 4.198,12.471 11.981,12.818 8.735,0.392 17.464,-0.116 26.175,-0.924 1.294,-0.119 1.508,-0.685 1.489,-1.795 -0.056,-3.002 -0.115,-6.005 0.019,-9 0.072,-1.659 -0.387,-2.163 -2.097,-2.13 -6.169,0.105 -12.343,0.06 -18.514,0.033 -3.296,-0.018 -5.769,-4.473 -4.081,-7.297 0.4,-0.667 1.071,-0.377 1.631,-0.402 5.727,-0.265 11.456,-0.573 17.187,-0.734 1.579,-0.043 2.079,-0.555 2.017,-2.107 -0.105,-2.826 -0.123,-5.66 0.006,-8.483 0.078,-1.68 -0.452,-2.178 -2.14,-2.196 -5.648,-0.061 -11.292,-0.36 -16.94,-0.434 -1.491,-0.018 -1.835,-0.477 -1.843,-1.901 -0.037,-4.867 0.761,-5.778 5.515,-5.763 5.742,0.013 11.486,0.003 17.224,0.113 1.515,0.028 2.12,-0.274 2.038,-1.943 -0.147,-2.994 -0.103,-5.998 -0.011,-8.996 0.036,-1.2 -0.323,-1.669 -1.515,-1.773 -8.875,-0.772 -17.775,-1.555 -26.668,-1.143 C 3.894,-28.019 0.003,-23.327 0,-15.688 -0.002,-10.458 0,-5.229 0,0"
             style="fill:#333332;fill-opacity:1;fill-rule:evenodd;stroke:none"
             id="path44" /></g><g
           id="g46"
           transform="translate(161.0767,73.4438)"><path
             d="m 0,0 c 0,5.229 -0.004,10.46 0,15.688 0.007,7.885 4.306,12.623 12.171,12.912 8.649,0.319 17.294,-0.131 25.917,-0.948 1.219,-0.115 1.586,-0.547 1.56,-1.729 -0.065,-3.172 -0.096,-6.346 0.013,-9.514 0.049,-1.425 -0.483,-1.68 -1.766,-1.672 C 31.721,14.8 25.55,14.774 19.379,14.763 15.747,14.753 13.29,10.711 14.965,7.529 15.397,6.707 16.171,7.095 16.791,7.062 22.349,6.785 27.905,6.468 33.465,6.336 35.201,6.293 35.917,5.895 35.818,4.03 35.667,1.207 35.681,-1.634 35.815,-4.453 35.897,-6.119 35.245,-6.429 33.743,-6.454 28.095,-6.539 22.45,-6.849 16.804,-6.881 c -1.721,-0.014 -1.916,-0.655 -1.91,-2.104 0.017,-4.756 0.76,-5.589 5.444,-5.574 5.743,0.014 11.486,-0.015 17.225,0.124 1.717,0.039 2.177,-0.489 2.1,-2.143 -0.134,-2.825 -0.155,-5.66 0.009,-8.479 0.094,-1.619 -0.534,-2.061 -1.97,-2.175 C 29.163,-27.91 20.611,-28.574 12.05,-28.375 4.253,-28.19 0.003,-23.448 0,-15.684 -0.002,-10.455 0,-5.226 0,0"
             style="fill:#333332;fill-opacity:1;fill-rule:evenodd;stroke:none"
             id="path48" /></g><g
           id="g50"
           transform="translate(536.5454,58.6035)"><path
             d="M 0,0 C 2.392,0.121 4.796,0.16 7.178,0.388 8.686,0.53 9.365,0.245 9.272,-1.471 9.132,-4.119 9.13,-6.789 9.276,-9.438 9.361,-10.993 8.607,-11.52 7.349,-11.95 c -5.211,-1.78 -10.614,-1.734 -16.006,-1.738 -1.969,0 -3.953,0.011 -5.899,0.271 -7.931,1.047 -12.607,5.885 -14.442,13.363 -2.529,10.306 -2.541,20.746 -0.003,31.043 2.149,8.723 8.045,12.972 16.997,13.04 6.435,0.05 12.827,0.007 19.039,-2.13 C 8.854,41.272 9.387,40.361 9.27,38.564 9.127,36.346 9.136,34.102 9.268,31.883 9.378,29.981 9.091,29.161 6.804,29.533 1.733,30.348 -3.399,30.77 -8.551,30.572 c -4.129,-0.16 -5.569,-1.219 -6.336,-5.28 -1.233,-6.529 -1.232,-13.136 -0.091,-19.675 0.7,-4.005 2.779,-5.556 7.016,-5.742 2.649,-0.114 5.306,-0.021 7.96,-0.021 0,0.049 0,0.096 0.002,0.146"
             style="fill:#333332;fill-opacity:1;fill-rule:evenodd;stroke:none"
             id="path52" /></g><g
           id="g54"
           transform="translate(448.2495,73.8247)"><path
             d="m 0,0 c 0,-8.743 -0.041,-17.482 0.036,-26.221 0.014,-1.627 -0.337,-2.214 -2.079,-2.147 -3.768,0.139 -7.541,0.086 -11.31,0.018 -1.218,-0.025 -1.597,0.32 -1.596,1.57 0.038,17.824 0.045,35.649 -0.009,53.472 -0.003,1.494 0.614,1.629 1.821,1.609 3.683,-0.056 7.37,-0.108 11.049,0.018 1.666,0.056 2.147,-0.398 2.127,-2.102 C -0.048,17.479 0,8.739 0,0"
             style="fill:#333332;fill-opacity:1;fill-rule:evenodd;stroke:none"
             id="path56" /></g><g
           id="g58"
           transform="translate(143.563,119.6953)"><path
             d="M 0,0 146.594,285.26 293.178,0 Z"
             style="fill:#ef3641;fill-opacity:1;fill-rule:nonzero;stroke:none"
             id="path60" /></g><g
           id="g62"
           transform="translate(143.563,119.6953)"><path
             d="M 0,0 146.594,285.26 293.178,0 Z"
             style="fill:none;stroke:#ce1f32;stroke-width:3;stroke-linecap:butt;stroke-linejoin:miter;stroke-miterlimit:10;stroke-dasharray:none;stroke-opacity:1"
             id="path64" /></g><g
           id="g66"><g
             id="g68" /><g
             id="g88"><g
               clip-path="url(#clipPath72)"
               opacity="0.320007"
               id="g86"><g
                 id="g84"><g
                   clip-path="url(#clipPath76)"
                   id="g82"><g
                     transform="translate(436.7407,119.6953)"
                     id="g80"><path
                       d="M 0,0 -187.14,206.347 -146.592,285.26 -293.178,0 Z"
                       style="fill:#841524;fill-opacity:1;fill-rule:nonzero;stroke:none"
                       id="path78" /></g></g></g></g></g></g><g
           id="g90"><g
             id="g92" /><g
             id="g112"><g
               clip-path="url(#clipPath96)"
               opacity="0.580002"
               id="g110"><g
                 id="g108"><g
                   clip-path="url(#clipPath100)"
                   id="g106"><g
                     transform="translate(143.563,119.6953)"
                     id="g104"><path
                       d="M 0,0 167.056,245.44 293.178,0 Z"
                       style="fill:#c12029;fill-opacity:1;fill-rule:nonzero;stroke:none"
                       id="path102" /></g></g></g></g></g></g><g
           id="g114"><g
             id="g116" /><g
             id="g136"><g
               clip-path="url(#clipPath120)"
               opacity="0.320007"
               id="g134"><g
                 id="g132"><g
                   clip-path="url(#clipPath124)"
                   id="g130"><g
                     transform="translate(143.563,119.6953)"
                     id="g128"><path
                       d="M 0,0 187.14,206.347 146.594,285.26 293.178,0 Z"
                       style="fill:#841524;fill-opacity:1;fill-rule:nonzero;stroke:none"
                       id="path126" /></g></g></g></g></g></g><g
           id="g138"><g
             id="g140" /><g
             id="g160"><g
               clip-path="url(#clipPath144)"
               opacity="0.580002"
               id="g158"><g
                 id="g156"><g
                   clip-path="url(#clipPath148)"
                   id="g154"><g
                     transform="translate(436.7407,119.6953)"
                     id="g152"><path
                       d="M 0,0 -167.05,245.44 -293.178,0 Z"
                       style="fill:#c12029;fill-opacity:1;fill-rule:nonzero;stroke:none"
                       id="path150" /></g></g></g></g></g></g><g
           id="g162"><g
             id="g164" /><g
             id="g184"><g
               clip-path="url(#clipPath168)"
               opacity="0.710007"
               id="g182"><g
                 id="g180"><g
                   clip-path="url(#clipPath172)"
                   id="g178"><g
                     transform="translate(369.1069,251.2256)"
                     id="g176"><path
                       d="M 0,0 67.634,-131.625 H -150.117 Z"
                       style="fill:#841518;fill-opacity:1;fill-rule:nonzero;stroke:none"
                       id="path174" /></g></g></g></g></g></g><g
           id="g186"><g
             id="g188" /><g
             id="g208"><g
               clip-path="url(#clipPath192)"
               opacity="0.710007"
               id="g206"><g
                 id="g204"><g
                   clip-path="url(#clipPath196)"
                   id="g202"><g
                     transform="translate(211.2021,251.2256)"
                     id="g200"><path
                       d="M 0,0 -67.634,-131.625 H 150.117 Z"
                       style="fill:#841518;fill-opacity:1;fill-rule:nonzero;stroke:none"
                       id="path198" /></g></g></g></g></g></g><g
           id="g210"
           transform="translate(335.8218,205.5254)"><path
             d="m 0,0 c 0,24.692 -20.022,44.708 -44.721,44.708 -24.688,0 -44.712,-20.016 -44.712,-44.708 0,-13.015 5.567,-24.728 14.435,-32.897 0.015,-0.008 0.022,-0.012 0.031,-0.025 14.071,-14.35 13.959,-19.307 13.959,-19.307 h 32.593 v 1.048 c 0.617,2.01 3.048,7.138 12.515,17 C -6.185,-25.978 0,-13.715 0,0"
             style="fill:#ffffff;fill-opacity:1;fill-rule:nonzero;stroke:none"
             id="path212" /></g><g
           id="g214"
           transform="translate(256.9556,193.2754)"><path
             d="m 0,0 c 0,23.821 19.307,43.132 43.123,43.132 6.589,0 12.829,-1.486 18.418,-4.132 -6.96,7.117 -16.657,11.541 -27.391,11.541 -21.153,0 -38.299,-17.142 -38.299,-38.291 0,-6.559 1.653,-12.727 4.551,-18.121 C 0.145,-3.952 0,-1.989 0,0"
             style="fill:#ce1f32;fill-opacity:1;fill-rule:nonzero;stroke:none"
             id="path216" /></g><g
           id="g218"
           transform="translate(307.6167,144.7788)"><path
             d="m 0,0 c 0,-2.306 -1.864,-4.171 -4.172,-4.171 h -24.25 c -2.302,0 -4.166,1.865 -4.166,4.171 0,2.302 1.864,4.167 4.166,4.167 h 24.25 C -1.864,4.167 0,2.302 0,0"
             style="fill:#ffffff;fill-opacity:1;fill-rule:nonzero;stroke:none"
             id="path220" /></g><g
           id="g222"
           transform="translate(307.6167,132.5937)"><path
             d="m 0,0 c 0,-2.302 -1.864,-4.175 -4.172,-4.175 h -24.25 c -2.302,0 -4.166,1.873 -4.166,4.175 0,2.298 1.864,4.166 4.166,4.166 h 24.25 C -1.864,4.166 0,2.298 0,0"
             style="fill:#ffffff;fill-opacity:1;fill-rule:nonzero;stroke:none"
             id="path224" /></g><g
           id="g226"
           transform="translate(291.2139,123.8101)"><path
             d="m 0,0 h -0.215 -12.293 l 1.985,-5.558 H -0.215 0 10.308 L 12.292,0 Z"
             style="fill:#ffffff;fill-opacity:1;fill-rule:nonzero;stroke:none"
             id="path228" /></g></g></g></g></svg>
